# Blender v2.74 (sub 0) OBJ File: 'untitled.blend'
# www.blender.org
mtllib grass_less.mtl
o grass101_Plane.307
v -1.128170 -0.019068 14.415010
v -1.662166 -0.019068 14.245436
v -1.726370 0.193064 14.447613
v -12.964018 0.193066 2.257267
v -12.752369 -0.019066 2.271485
v -12.714812 -0.019066 1.712471
v -13.559035 0.193065 4.640132
v -13.351171 -0.019067 4.597811
v -13.462950 -0.019067 4.048800
v -11.994585 -0.019067 7.566479
v -12.284438 -0.019067 7.087006
v -12.465972 0.193065 7.196747
v -13.957223 -0.019067 6.840232
v -14.161405 -0.019067 6.318488
v -14.358944 0.193065 6.395792
v -12.502992 0.193064 9.618101
v -12.351590 -0.019068 9.469522
v -12.744016 -0.019067 9.069635
v -14.440217 -0.019067 9.195732
v -14.706522 -0.019067 8.702795
v -14.893155 0.193065 8.803621
v -10.546015 -0.019068 12.499847
v -11.039719 -0.019068 12.234964
v -11.140007 0.193064 12.421886
v -8.450313 -0.019068 13.547625
v -8.974970 -0.019068 13.351042
v -9.049398 0.193064 13.549685
v -5.957090 -0.019068 14.257236
v -6.481747 -0.019068 14.060656
v -6.556176 0.193064 14.259298
v -5.176483 -0.019069 16.802319
v -5.701139 -0.019069 16.605738
v -5.775568 0.193063 16.804380
v -8.509153 -0.019069 15.980890
v -8.949955 -0.019069 15.635057
v -9.080893 0.193063 15.801950
v -3.639483 -0.019069 15.892485
v -4.196457 -0.019069 15.831757
v -4.219451 0.193063 16.042635
v -17.087833 -0.019066 0.799946
v -17.050276 -0.019066 0.240932
v -17.261925 0.193066 0.226713
v -16.311916 0.193065 5.001672
v -16.104053 -0.019067 4.959352
v -16.215830 -0.019067 4.410341
v -13.132320 0.193064 12.208544
v -12.959270 -0.019068 12.085859
v -13.283300 -0.019068 11.628794
v 12.090759 -0.019068 12.475983
v 11.666952 -0.019068 12.842445
v 11.805699 0.193064 13.002905
v 5.361613 0.193063 16.494015
v 5.299509 -0.019069 16.291182
v 4.763784 -0.019069 16.455210
v 1.057950 -0.019069 15.640757
v 0.497914 -0.019069 15.657104
v 0.504103 0.193063 15.869143
v 15.196085 0.193066 2.836085
v 14.983973 -0.019066 2.833467
v 14.977060 -0.019067 3.393700
v 15.718731 0.193065 7.786383
v 15.540024 -0.019067 7.672093
v 15.238159 -0.019067 8.144094
v 16.242203 0.193065 4.330891
v 16.037327 -0.019067 4.275900
v 15.892082 -0.019067 4.817021
v 12.337602 -0.019066 2.696392
v 12.293095 -0.019067 3.254896
v 12.504551 0.193065 3.271747
v 13.579053 -0.019067 5.297519
v 13.433809 -0.019067 5.838640
v 13.638686 0.193065 5.893631
v 13.317245 0.193065 7.902395
v 13.112369 -0.019067 7.847404
v 12.967125 -0.019067 8.388525
v 12.270872 -0.019068 10.034109
v 12.054668 -0.019068 10.550989
v 12.250366 0.193064 10.632847
v 10.255823 -0.019067 7.507994
v 10.032765 -0.019067 8.021952
v 10.227356 0.193065 8.106405
v 10.799994 -0.019067 4.644797
v 10.755486 -0.019067 5.203301
v 10.966943 0.193065 5.220152
v 9.356356 -0.019068 14.227863
v 8.891294 -0.019068 14.540316
v 9.009592 0.193064 14.716394
v 9.590567 0.193064 12.259010
v 9.428123 -0.019068 12.122591
v 9.067808 -0.019068 12.551636
v 6.965335 -0.019068 13.973505
v 6.465632 -0.019068 14.226891
v 6.561566 0.193064 14.416086
v 7.626259 0.193064 12.120302
v 7.499576 -0.019068 11.950155
v 7.050184 -0.019068 12.284748
v 4.737150 0.193064 13.788631
v 4.675045 -0.019068 13.585798
v 4.139319 -0.019068 13.749828
v 2.308125 0.193064 13.425402
v 1.741899 -0.019068 13.229712
v 13.479372 0.193066 0.520263
v 13.271960 -0.019066 0.475789
v 13.154493 -0.019066 1.023611
v 12.463500 0.193066 -2.884229
v 12.253078 -0.019066 -2.857369
v 12.324024 -0.019066 -2.301604
v 12.392056 -0.019065 -5.255503
v 12.607603 -0.019065 -4.738350
v 12.803405 0.193067 -4.819959
v 10.645442 0.193067 -8.049545
v 10.488475 -0.019065 -7.906857
v 10.865344 -0.019065 -7.492276
v 12.554317 -0.019065 -7.572704
v 12.855277 -0.019065 -7.100124
v 13.034203 0.193067 -7.214070
v 10.471810 -0.019064 -9.843029
v 10.933982 -0.019064 -9.526321
v 11.053892 0.193068 -9.701303
v 12.574031 -0.019064 -9.977131
v 12.930395 -0.019064 -9.544798
v 13.094082 0.193068 -9.679720
v 8.178139 0.193068 -12.671061
v 8.115777 -0.019064 -12.468304
v 8.651294 -0.019064 -12.303595
v 5.892089 0.193068 -13.301565
v 5.857362 -0.019064 -13.092300
v 6.410078 -0.019064 -13.000578
v 3.274098 -0.019064 -13.307816
v 3.826814 -0.019064 -13.216095
v 3.861541 0.193068 -13.425360
v 2.052092 0.193069 -15.863873
v 2.017365 -0.019063 -15.654606
v 2.570081 -0.019063 -15.562883
v 5.542182 0.193069 -15.680250
v 5.445885 -0.019063 -15.491241
v 5.945102 -0.019064 -15.236898
v 0.684658 -0.019064 -14.465467
v 1.242890 -0.019064 -14.513281
v 1.224787 0.193068 -14.724636
v 14.790324 -0.019066 -1.856304
v 14.861269 -0.019066 -1.300539
v 15.071690 0.193066 -1.327400
v 15.023552 -0.019065 -6.141100
v 15.239099 -0.019065 -5.623949
v 15.434900 0.193067 -5.705558
v 10.563567 -0.019064 -12.527443
v 10.969654 -0.019064 -12.141438
v 11.115802 0.193068 -12.295189
v -13.821646 -0.019064 -10.197609
v -13.470737 -0.019064 -10.634382
v -13.636105 0.193068 -10.767241
v -7.828210 -0.019064 -15.173111
v -7.330770 -0.019063 -15.430908
v -7.428376 0.193069 -15.619249
v -3.583120 0.193069 -15.504391
v -3.538860 -0.019064 -15.296932
v -2.990917 -0.019063 -15.413836
v -2.065453 -0.019063 -17.645235
v -1.511381 -0.019063 -17.728378
v -1.542860 0.193069 -17.938158
v -4.325512 -0.019063 -16.870321
v -3.777570 -0.019063 -16.987226
v -3.821831 0.193069 -17.194683
v -15.140737 0.193066 -0.156162
v -14.931620 -0.019066 -0.191774
v -15.025680 -0.019066 -0.744097
v -16.349695 -0.019065 -4.851233
v -16.137739 -0.019065 -5.369868
v -16.334101 0.193067 -5.450117
v -16.227444 -0.019066 -1.421001
v -16.181993 -0.019066 -1.979429
v -16.393421 0.193066 -1.996638
v -12.526661 -0.019066 -0.492582
v -12.583431 -0.019066 -1.049973
v -12.794466 0.193066 -1.028480
v -13.993265 -0.019066 -2.868495
v -13.947815 -0.019065 -3.426923
v -14.159242 0.193067 -3.444131
v -13.993265 -0.019065 -5.460734
v -13.947815 -0.019065 -6.019163
v -14.159242 0.193067 -6.036371
v -13.559197 -0.019065 -7.763210
v -13.439581 -0.019065 -8.310566
v -13.646818 0.193067 -8.355856
v -11.122289 -0.019065 -5.641140
v -10.995402 -0.019065 -6.186857
v -11.202021 0.193067 -6.234898
v -11.595377 0.193068 -12.565050
v -11.447310 -0.019064 -12.413147
v -11.046099 -0.019064 -12.804218
v -11.138890 -0.019064 -10.329351
v -10.861705 -0.019064 -10.816256
v -11.046053 0.193068 -10.921204
v -9.177997 0.193068 -12.762238
v -9.049567 -0.019064 -12.593405
v -8.603644 -0.019064 -12.932611
v -9.366055 0.193068 -10.651491
v -9.210807 -0.019064 -10.506931
v -8.828994 -0.019064 -10.916964
v -6.824504 0.193068 -12.812695
v -6.726896 -0.019064 -12.624355
v -6.229456 -0.019064 -12.882154
v -1.088603 -0.019064 -13.977711
v -0.532913 -0.019064 -13.906199
v -0.505836 0.193068 -14.116592
v -1.192374 0.193064 14.617189
v -12.926460 0.193066 1.698252
v -13.670812 0.193065 4.091121
v -12.176119 0.193065 7.676220
v -14.154763 0.193065 6.917538
v -12.895418 0.193064 9.218214
v -14.626850 0.193064 9.296558
v -10.646303 0.193064 12.686769
v -8.524742 0.193064 13.746267
v -6.031520 0.193064 14.455879
v -5.250913 0.193063 17.000961
v -8.640090 0.193063 16.147781
v -3.662477 0.193063 16.103363
v -17.299480 0.193066 0.785727
v -16.423693 0.193065 4.452662
v -13.456353 0.193064 11.751476
v 12.229507 0.193064 12.636442
v 4.825887 0.193063 16.658045
v 1.064139 0.193063 15.852795
v 15.189172 0.193065 3.396317
v 15.416864 0.193065 8.258385
v 16.096958 0.193065 4.872012
v 12.549057 0.193066 2.713243
v 13.783930 0.193065 5.352510
v 13.172002 0.193065 8.443516
v 12.466570 0.193064 10.115969
v 10.450415 0.193065 7.592447
v 11.011450 0.193065 4.661648
v 9.474653 0.193064 14.403942
v 9.230251 0.193064 12.688057
v 7.061270 0.193064 14.162703
v 7.176867 0.193064 12.454895
v 4.201423 0.193064 13.952662
v 1.748089 0.193064 13.441750
v 13.361906 0.193066 1.068085
v 12.534445 0.193066 -2.328465
v 12.587857 0.193067 -5.337112
v 11.022310 0.193067 -7.634964
v 12.733243 0.193067 -7.686650
v 10.591721 0.193068 -10.018013
v 12.737720 0.193068 -10.112055
v 8.713655 0.193068 -12.506350
v 6.444805 0.193068 -13.209843
v 3.308825 0.193068 -13.517082
v 2.604808 0.193069 -15.772150
v 6.041399 0.193069 -15.425909
v 0.666556 0.193068 -14.676823
v 15.000744 0.193066 -1.883164
v 15.219354 0.193067 -6.222709
v 10.709715 0.193068 -12.681194
v -13.987011 0.193068 -10.330467
v -7.925817 0.193069 -15.361450
v -3.035179 0.193069 -15.621294
v -2.096931 0.193069 -17.855013
v -4.369771 0.193069 -17.077780
v -15.234797 0.193066 -0.708484
v -16.546055 0.193067 -4.931482
v -16.438873 0.193066 -1.438210
v -12.737697 0.193066 -0.471088
v -14.204692 0.193066 -2.885703
v -14.204692 0.193067 -5.477942
v -13.766437 0.193067 -7.808499
v -11.328906 0.193067 -5.689181
v -11.194167 0.193068 -12.956123
v -11.323239 0.193068 -10.434299
v -8.732077 0.193068 -13.101444
v -8.984240 0.193068 -11.061523
v -6.327063 0.193068 -13.070492
v -1.061527 0.193068 -14.188105
vt 0.798504 0.579770
vt 0.866153 0.579770
vt 0.866153 0.629465
vt 0.798505 0.629466
vn 0.214000 0.707100 -0.674000
vn 0.705500 0.707100 0.047400
vn 0.692900 0.707100 -0.141100
vn 0.605100 0.707100 -0.365800
vn 0.658500 0.707100 -0.257700
vn 0.504700 0.707100 -0.495300
vn 0.622100 0.707100 -0.336100
vn 0.334300 0.707100 -0.623100
vn 0.248100 0.707100 -0.662200
vn 0.436500 0.707100 -0.556300
vn 0.076600 0.707100 -0.702900
vn 0.576900 0.707100 -0.409000
vn -0.462500 0.707100 -0.534900
vn -0.207000 0.707100 -0.676100
vn -0.020600 0.707100 -0.706800
vn -0.707100 0.707100 -0.008700
vn -0.595700 0.707100 -0.381000
vn -0.682900 0.707100 -0.183300
vn -0.704900 0.707100 -0.056200
vn -0.652300 0.707100 -0.272900
vn -0.648700 0.707100 -0.281500
vn -0.394300 0.707100 -0.586900
vn -0.541500 0.707100 -0.454700
vn -0.319800 0.707100 -0.630700
vn -0.422300 0.707100 -0.567200
vn -0.691400 0.707100 -0.148300
vn -0.701400 0.707100 0.089500
vn -0.652700 0.707100 0.272000
vn -0.523200 0.707100 0.475600
vn -0.596400 0.707100 0.379800
vn -0.399700 0.707100 0.583300
vn -0.545600 0.707100 0.449800
vn -0.207900 0.707100 0.675900
vn -0.115800 0.707100 0.697600
vn -0.321000 0.707100 0.630100
vn 0.060300 0.707100 0.704500
vn -0.487200 0.707100 0.512500
vn 0.551200 0.707100 0.442900
vn 0.325400 0.707100 0.627800
vn 0.147500 0.707100 0.691600
vn 0.104900 0.707100 0.699300
vn 0.697100 0.707100 -0.118700
vn 0.654600 0.707100 0.267500
vn 0.704800 0.707100 0.057400
vn 0.703500 0.707100 -0.071600
vn 0.690800 0.707100 0.151000
vn 0.688700 0.707100 0.160100
vn 0.493600 0.707100 0.506400
vn 0.614500 0.707100 0.349800
vn 0.428100 0.707100 0.562800
vn 0.517500 0.707100 0.481900
vn -0.090300 0.707100 0.701300
vn 0.214000 0.707100 -0.673900
vn 0.551300 0.707100 0.442900
usemtl None
s off
f 1/1/1 2/2/1 3/3/1
f 4/4/2 5/1/2 6/2/2
f 7/4/3 8/1/3 9/2/3
f 10/1/4 11/2/4 12/3/4
f 13/1/5 14/2/5 15/3/5
f 16/4/6 17/1/6 18/2/6
f 19/1/7 20/2/7 21/3/7
f 22/1/8 23/2/8 24/3/8
f 25/1/9 26/2/9 27/3/9
f 28/1/9 29/2/9 30/3/9
f 31/1/9 32/2/9 33/3/9
f 34/1/10 35/2/10 36/3/10
f 37/1/11 38/2/11 39/3/11
f 40/1/2 41/2/2 42/3/2
f 43/4/3 44/1/3 45/2/3
f 46/4/12 47/1/12 48/2/12
f 49/1/13 50/2/13 51/3/13
f 52/4/14 53/1/14 54/2/14
f 55/1/15 56/2/15 57/3/15
f 58/4/16 59/1/16 60/2/16
f 61/4/17 62/1/17 63/2/17
f 64/4/18 65/1/18 66/2/18
f 67/1/19 68/2/19 69/3/19
f 70/1/18 71/2/18 72/3/18
f 73/4/18 74/1/18 75/2/18
f 76/1/20 77/2/20 78/3/20
f 79/1/21 80/2/21 81/3/21
f 82/1/19 83/2/19 84/3/19
f 85/1/22 86/2/22 87/3/22
f 88/4/23 89/1/23 90/2/23
f 91/1/24 92/2/24 93/3/24
f 94/4/25 95/1/25 96/2/25
f 97/4/14 98/1/14 99/2/14
f 102/4/26 103/1/26 104/2/26
f 105/4/27 106/1/27 107/2/27
f 108/1/28 109/2/28 110/3/28
f 111/4/29 112/1/29 113/2/29
f 114/1/30 115/2/30 116/3/30
f 117/1/31 118/2/31 119/3/31
f 120/1/32 121/2/32 122/3/32
f 123/4/33 124/1/33 125/2/33
f 126/4/34 127/1/34 128/2/34
f 129/1/34 130/2/34 131/3/34
f 132/4/34 133/1/34 134/2/34
f 135/4/35 136/1/35 137/2/35
f 138/1/36 139/2/36 140/3/36
f 141/1/27 142/2/27 143/3/27
f 144/1/28 145/2/28 146/3/28
f 147/1/37 148/2/37 149/3/37
f 150/1/38 151/2/38 152/3/38
f 153/1/39 154/2/39 155/3/39
f 156/4/40 157/1/40 158/2/40
f 159/1/41 160/2/41 161/3/41
f 162/1/40 163/2/40 164/3/40
f 165/4/42 166/1/42 167/2/42
f 168/1/43 169/2/43 170/3/43
f 171/1/44 172/2/44 173/3/44
f 174/1/45 175/2/45 176/3/45
f 177/1/44 178/2/44 179/3/44
f 180/1/44 181/2/44 182/3/44
f 183/1/46 184/2/46 185/3/46
f 186/1/47 187/2/47 188/3/47
f 189/4/48 190/1/48 191/2/48
f 192/1/49 193/2/49 194/3/49
f 195/4/50 196/1/50 197/2/50
f 198/4/51 199/1/51 200/2/51
f 201/4/39 202/1/39 203/2/39
f 204/1/52 205/2/52 206/3/52
f 207/4/53 1/1/53 3/3/53
f 208/3/2 4/4/2 6/2/2
f 209/3/3 7/4/3 9/2/3
f 210/4/4 10/1/4 12/3/4
f 211/4/5 13/1/5 15/3/5
f 212/3/6 16/4/6 18/2/6
f 213/4/7 19/1/7 21/3/7
f 214/4/8 22/1/8 24/3/8
f 215/4/9 25/1/9 27/3/9
f 216/4/9 28/1/9 30/3/9
f 217/4/9 31/1/9 33/3/9
f 218/4/10 34/1/10 36/3/10
f 219/4/11 37/1/11 39/3/11
f 220/4/2 40/1/2 42/3/2
f 221/3/3 43/4/3 45/2/3
f 222/3/12 46/4/12 48/2/12
f 223/4/13 49/1/13 51/3/13
f 224/3/14 52/4/14 54/2/14
f 225/4/15 55/1/15 57/3/15
f 226/3/16 58/4/16 60/2/16
f 227/3/17 61/4/17 63/2/17
f 228/3/18 64/4/18 66/2/18
f 229/4/19 67/1/19 69/3/19
f 230/4/18 70/1/18 72/3/18
f 231/3/18 73/4/18 75/2/18
f 232/4/20 76/1/20 78/3/20
f 233/4/21 79/1/21 81/3/21
f 234/4/19 82/1/19 84/3/19
f 235/4/22 85/1/22 87/3/22
f 236/3/23 88/4/23 90/2/23
f 237/4/24 91/1/24 93/3/24
f 238/3/25 94/4/25 96/2/25
f 239/3/14 97/4/14 99/2/14
f 240/3/15 100/4/15 101/2/15
f 241/3/26 102/4/26 104/2/26
f 242/3/27 105/4/27 107/2/27
f 243/4/28 108/1/28 110/3/28
f 244/3/29 111/4/29 113/2/29
f 245/4/30 114/1/30 116/3/30
f 246/4/31 117/1/31 119/3/31
f 247/4/32 120/1/32 122/3/32
f 248/3/33 123/4/33 125/2/33
f 249/3/34 126/4/34 128/2/34
f 250/4/34 129/1/34 131/3/34
f 251/3/34 132/4/34 134/2/34
f 252/3/35 135/4/35 137/2/35
f 253/4/36 138/1/36 140/3/36
f 254/4/27 141/1/27 143/3/27
f 255/4/28 144/1/28 146/3/28
f 256/4/37 147/1/37 149/3/37
f 257/4/54 150/1/54 152/3/54
f 258/4/39 153/1/39 155/3/39
f 259/3/40 156/4/40 158/2/40
f 260/4/41 159/1/41 161/3/41
f 261/4/40 162/1/40 164/3/40
f 262/3/42 165/4/42 167/2/42
f 263/4/43 168/1/43 170/3/43
f 264/4/44 171/1/44 173/3/44
f 265/4/45 174/1/45 176/3/45
f 266/4/44 177/1/44 179/3/44
f 267/4/44 180/1/44 182/3/44
f 268/4/46 183/1/46 185/3/46
f 269/4/47 186/1/47 188/3/47
f 270/3/48 189/4/48 191/2/48
f 271/4/49 192/1/49 194/3/49
f 272/3/50 195/4/50 197/2/50
f 273/3/51 198/4/51 200/2/51
f 274/3/39 201/4/39 203/2/39
f 275/4/52 204/1/52 206/3/52
