# Blender v2.74 (sub 0) OBJ File: ''
# www.blender.org
mtllib sphere_tail.mtl
o sphere_tail
v -0.000008 0.028935 -0.154165
v 0.081654 0.028935 -0.109011
v 0.043084 -0.007511 -0.058997
v -0.000008 0.083480 -0.201427
v 0.107425 0.083480 -0.142430
v -0.000008 0.147821 -0.218023
v 0.116474 0.147821 -0.154165
v -0.000008 0.212162 -0.201427
v 0.107425 0.212162 -0.142430
v -0.000008 0.266707 -0.154165
v 0.081654 0.266707 -0.109011
v -0.000008 0.303153 -0.083434
v 0.043084 0.303153 -0.058997
v 0.116474 0.028935 0.000000
v 0.061929 -0.007511 0.000000
v 0.152921 0.083480 0.000000
v 0.165718 0.147821 0.000000
v 0.152921 0.212162 0.000000
v 0.116474 0.266707 0.000000
v 0.061929 0.303153 0.000000
v 0.081654 0.028935 0.109011
v 0.107425 0.083480 0.142430
v 0.116474 0.147821 0.154165
v 0.107425 0.212162 0.142430
v 0.081654 0.266707 0.109011
v 0.043084 0.303153 0.058996
v -0.000008 -0.020309 -0.000000
v -0.000008 -0.007511 -0.083434
v -0.000008 0.315951 -0.000000
v 0.043084 -0.007511 0.058996
v -0.000008 -0.007511 0.083433
v -0.000008 0.028935 0.154165
v -0.000008 0.083480 0.201426
v -0.000008 0.147821 0.218022
v -0.000008 0.212162 0.201426
v -0.000008 0.266707 0.154165
v -0.000008 0.303153 0.083433
v -0.081669 0.028935 -0.109011
v -0.043099 -0.007511 -0.058997
v -0.107440 0.083480 -0.142430
v -0.116489 0.147821 -0.154165
v -0.107440 0.212162 -0.142430
v -0.081669 0.266707 -0.109011
v -0.043099 0.303153 -0.058997
v -0.061944 -0.007511 -0.000000
v -0.116489 0.028935 -0.000000
v -0.152936 0.083480 -0.000000
v -0.165733 0.147821 -0.000000
v -0.152936 0.212162 -0.000000
v -0.116489 0.266707 -0.000000
v -0.061944 0.303153 -0.000000
v -0.043099 -0.007511 0.058996
v -0.081669 0.028935 0.109011
v -0.107440 0.083480 0.142430
v -0.116489 0.147821 0.154165
v -0.107440 0.212162 0.142430
v -0.081669 0.266707 0.109011
v -0.043099 0.303153 0.058996
vt 0.775573 0.484714
vt 0.702602 0.502267
vt 0.685546 0.454150
vt 0.799641 0.545458
vt 0.707786 0.544749
vt 0.798441 0.602994
vt 0.704838 0.583734
vt 0.776829 0.656327
vt 0.692157 0.620715
vt 0.730734 0.702637
vt 0.670620 0.657699
vt 0.661564 0.731420
vt 0.635953 0.695173
vt 0.632470 0.494768
vt 0.640893 0.453837
vt 0.625058 0.530791
vt 0.617849 0.565835
vt 0.610637 0.600878
vt 0.603226 0.636902
vt 0.594804 0.677832
vt 0.565075 0.473970
vt 0.543538 0.510956
vt 0.530858 0.547937
vt 0.527909 0.586920
vt 0.533094 0.629402
vt 0.550151 0.677519
vt 0.651918 0.400251
vt 0.723385 0.430960
vt 0.583779 0.731420
vt 0.599743 0.436496
vt 0.574132 0.400249
vt 0.504962 0.429032
vt 0.458866 0.475342
vt 0.437254 0.528677
vt 0.436054 0.586213
vt 0.460122 0.646957
vt 0.512312 0.700711
vn 0.000000 -0.758400 -0.651800
vn 0.541800 -0.722000 -0.430200
vn 0.312400 -0.921100 -0.232200
vn 0.000000 -0.438300 -0.898800
vn 0.704600 -0.402900 -0.584200
vn 0.000000 0.000000 -1.000000
vn 0.764700 0.000000 -0.644400
vn 0.000000 0.438300 -0.898800
vn 0.704600 0.402900 -0.584200
vn 0.000000 0.758400 -0.651800
vn 0.541800 0.722000 -0.430200
vn 0.000000 0.934900 -0.354800
vn 0.312400 0.921100 -0.232200
vn 0.725200 -0.688600 0.000000
vn 0.417200 -0.908800 0.000000
vn 0.929000 -0.369900 0.000000
vn 1.000000 0.000000 0.000000
vn 0.929000 0.369900 0.000000
vn 0.725200 0.688600 0.000000
vn 0.417200 0.908800 0.000000
vn 0.541800 -0.722000 0.430200
vn 0.704600 -0.402900 0.584200
vn 0.764700 0.000000 0.644400
vn 0.704600 0.402900 0.584200
vn 0.541800 0.722000 0.430200
vn 0.312400 0.921100 0.232200
vn 0.000000 -1.000000 0.000000
vn 0.000000 -0.934900 -0.354800
vn 0.000000 1.000000 0.000000
vn 0.312400 -0.921100 0.232200
vn 0.000000 -0.934900 0.354800
vn 0.000000 -0.758400 0.651800
vn 0.000000 -0.438300 0.898800
vn 0.000000 0.000000 1.000000
vn 0.000000 0.438300 0.898800
vn 0.000000 0.758400 0.651800
vn 0.000000 0.934900 0.354800
vn -0.541800 -0.722000 -0.430200
vn -0.312400 -0.921100 -0.232200
vn -0.704600 -0.402900 -0.584200
vn -0.764700 0.000000 -0.644400
vn -0.704600 0.402900 -0.584200
vn -0.541800 0.722000 -0.430200
vn -0.312400 0.921100 -0.232200
vn -0.417200 -0.908800 0.000000
vn -0.725200 -0.688600 0.000000
vn -0.929000 -0.369900 0.000000
vn -1.000000 0.000000 0.000000
vn -0.929000 0.369900 0.000000
vn -0.725200 0.688600 0.000000
vn -0.417200 0.908800 0.000000
vn -0.312400 -0.921100 0.232200
vn -0.541800 -0.722000 0.430200
vn -0.704600 -0.402900 0.584200
vn -0.764700 0.000000 0.644400
vn -0.704600 0.402900 0.584200
vn -0.541800 0.722000 0.430200
vn -0.312400 0.921100 0.232200
usemtl None
s 1
f 1/1/1 2/2/2 3/3/3
f 4/4/4 5/5/5 2/2/2
f 6/6/6 7/7/7 5/5/5
f 6/6/6 8/8/8 9/9/9
f 8/8/8 10/10/10 11/11/11
f 10/10/10 12/12/12 13/13/13
f 2/2/2 14/14/14 15/15/15
f 5/5/5 16/16/16 14/14/14
f 7/7/7 17/17/17 16/16/16
f 7/7/7 9/9/9 18/18/18
f 9/9/9 11/11/11 19/19/19
f 11/11/11 13/13/13 20/20/20
f 15/15/15 14/14/14 21/21/21
f 14/14/14 16/16/16 22/22/22
f 16/16/16 17/17/17 23/23/23
f 18/18/18 24/24/24 23/23/23
f 19/19/19 25/25/25 24/24/24
f 20/20/20 26/26/26 25/25/25
f 27/27/27 28/28/28 3/3/3
f 12/12/12 29/29/29 13/13/13
f 27/27/27 3/3/3 15/15/15
f 13/13/13 29/29/29 20/20/20
f 27/27/27 15/15/15 30/30/30
f 20/20/20 29/29/29 26/26/26
f 27/27/27 30/30/30 31/31/31
f 30/30/30 21/21/21 32/32/32
f 21/21/21 22/22/22 33/33/33
f 22/22/22 23/23/23 34/34/34
f 24/24/24 35/35/35 34/34/34
f 25/25/25 36/36/36 35/35/35
f 26/26/26 37/37/37 36/36/36
f 26/26/26 29/29/29 37/37/37
f 38/2/38 1/1/1 39/3/39
f 38/2/38 40/5/40 4/4/4
f 40/5/40 41/7/41 6/6/6
f 6/6/6 41/7/41 42/9/42
f 8/8/8 42/9/42 43/11/43
f 10/10/10 43/11/43 44/13/44
f 45/15/45 46/14/46 38/2/38
f 46/14/46 47/16/47 40/5/40
f 47/16/47 48/17/48 41/7/41
f 41/7/41 48/17/48 49/18/49
f 42/9/42 49/18/49 50/19/50
f 43/11/43 50/19/50 51/20/51
f 45/15/45 52/30/52 53/21/53
f 46/14/46 53/21/53 54/22/54
f 47/16/47 54/22/54 55/23/55
f 55/23/55 56/24/56 49/18/49
f 56/24/56 57/25/57 50/19/50
f 57/25/57 58/26/58 51/20/51
f 27/27/27 39/3/39 28/28/28
f 12/12/12 44/13/44 29/29/29
f 27/27/27 45/15/45 39/3/39
f 44/13/44 51/20/51 29/29/29
f 27/27/27 52/30/52 45/15/45
f 51/20/51 58/26/58 29/29/29
f 27/27/27 31/31/31 52/30/52
f 52/30/52 31/31/31 32/32/32
f 53/21/53 32/32/32 33/33/33
f 54/22/54 33/33/33 34/34/34
f 34/34/34 35/35/35 56/24/56
f 35/35/35 36/36/36 57/25/57
f 36/36/36 37/37/37 58/26/58
f 58/26/58 37/37/37 29/29/29
f 28/28/28 1/1/1 3/3/3
f 1/1/1 4/4/4 2/2/2
f 4/4/4 6/6/6 5/5/5
f 7/7/7 6/6/6 9/9/9
f 9/9/9 8/8/8 11/11/11
f 11/11/11 10/10/10 13/13/13
f 3/3/3 2/2/2 15/15/15
f 2/2/2 5/5/5 14/14/14
f 5/5/5 7/7/7 16/16/16
f 17/17/17 7/7/7 18/18/18
f 18/18/18 9/9/9 19/19/19
f 19/19/19 11/11/11 20/20/20
f 30/30/30 15/15/15 21/21/21
f 21/21/21 14/14/14 22/22/22
f 22/22/22 16/16/16 23/23/23
f 17/17/17 18/18/18 23/23/23
f 18/18/18 19/19/19 24/24/24
f 19/19/19 20/20/20 25/25/25
f 31/31/31 30/30/30 32/32/32
f 32/32/32 21/21/21 33/33/33
f 33/33/33 22/22/22 34/34/34
f 23/23/23 24/24/24 34/34/34
f 24/24/24 25/25/25 35/35/35
f 25/25/25 26/26/26 36/36/36
f 39/3/39 1/1/1 28/28/28
f 1/1/1 38/2/38 4/4/4
f 4/4/4 40/5/40 6/6/6
f 8/8/8 6/6/6 42/9/42
f 10/10/10 8/8/8 43/11/43
f 12/12/12 10/10/10 44/13/44
f 39/3/39 45/15/45 38/2/38
f 38/2/38 46/14/46 40/5/40
f 40/5/40 47/16/47 41/7/41
f 42/9/42 41/7/41 49/18/49
f 43/11/43 42/9/42 50/19/50
f 44/13/44 43/11/43 51/20/51
f 46/14/46 45/15/45 53/21/53
f 47/16/47 46/14/46 54/22/54
f 48/17/48 47/16/47 55/23/55
f 48/17/48 55/23/55 49/18/49
f 49/18/49 56/24/56 50/19/50
f 50/19/50 57/25/57 51/20/51
f 53/21/53 52/30/52 32/32/32
f 54/22/54 53/21/53 33/33/33
f 55/23/55 54/22/54 34/34/34
f 55/23/55 34/34/34 56/24/56
f 56/24/56 35/35/35 57/25/57
f 57/25/57 36/36/36 58/26/58
