# Blender v2.74 (sub 0) OBJ File: ''
# www.blender.org
mtllib worm_mesh_middle.mtl
o worm_mesh_middle.001
v 0.000005 -0.141421 0.183388
v -0.097591 -0.141421 0.129675
v -0.051711 -0.184776 0.070180
v 0.000005 -0.076537 0.239608
v -0.128247 -0.076537 0.169428
v 0.000005 0.000000 0.259349
v -0.139012 0.000000 0.183388
v 0.000005 0.076537 0.239608
v -0.128247 0.076537 0.169428
v 0.000005 0.141421 0.183388
v -0.097591 0.141421 0.129675
v 0.000005 0.184776 0.099249
v -0.051711 0.184776 0.070180
v -0.139012 -0.141421 0.000000
v -0.074128 -0.184776 0.000000
v -0.182367 -0.076537 -0.000000
v -0.197591 0.000000 -0.000000
v -0.182367 0.076537 -0.000000
v -0.139012 0.141421 -0.000000
v -0.074128 0.184776 -0.000000
v -0.097591 -0.141421 -0.129674
v -0.128247 -0.076537 -0.169428
v -0.139012 -0.000000 -0.183387
v -0.128247 0.076537 -0.169428
v -0.097591 0.141421 -0.129674
v -0.051711 0.184776 -0.070179
v 0.000005 -0.200000 0.000000
v 0.000005 -0.184776 0.099249
v 0.000005 0.200000 -0.000000
v -0.051711 -0.184776 -0.070179
v 0.000005 -0.184776 -0.099248
v 0.000005 -0.141421 -0.183387
v 0.000005 -0.076537 -0.239607
v 0.000005 -0.000000 -0.259349
v 0.000005 0.076537 -0.239607
v 0.000005 0.141421 -0.183387
v 0.000005 0.184776 -0.099248
v 0.051721 -0.184776 0.070180
v 0.097601 -0.141421 0.129675
v 0.128257 -0.076537 0.169428
v 0.139022 0.000000 0.183388
v 0.128257 0.076537 0.169428
v 0.097601 0.141421 0.129675
v 0.051721 0.184776 0.070180
v 0.074138 -0.184776 0.000000
v 0.139022 -0.141421 0.000000
v 0.182377 -0.076537 0.000000
v 0.197600 0.000000 0.000000
v 0.182377 0.076537 0.000000
v 0.139022 0.141421 -0.000000
v 0.074138 0.184776 -0.000000
v 0.051721 -0.184776 -0.070179
v 0.097601 -0.141421 -0.129674
v 0.128257 -0.076537 -0.169428
v 0.139022 -0.000000 -0.183387
v 0.128257 0.076537 -0.169428
v 0.097601 0.141421 -0.129674
v 0.051721 0.184776 -0.070179
vt 0.541868 0.061391
vt 0.492527 0.073261
vt 0.480994 0.040726
vt 0.558142 0.102465
vt 0.496033 0.101987
vt 0.557332 0.141368
vt 0.494039 0.128347
vt 0.542719 0.177433
vt 0.485465 0.153352
vt 0.511550 0.208747
vt 0.470902 0.178361
vt 0.464779 0.228209
vt 0.447461 0.203701
vt 0.445106 0.068190
vt 0.450801 0.040515
vt 0.440094 0.092549
vt 0.435219 0.116244
vt 0.430343 0.139939
vt 0.425331 0.164299
vt 0.419637 0.191974
vt 0.399536 0.054128
vt 0.384973 0.079136
vt 0.376398 0.104141
vt 0.374404 0.130501
vt 0.377910 0.159227
vt 0.389443 0.191763
vt 0.458256 0.004281
vt 0.506579 0.025045
vt 0.412181 0.228209
vt 0.422977 0.028789
vt 0.405660 0.004280
vt 0.358890 0.023742
vt 0.327721 0.055054
vt 0.313106 0.091117
vt 0.312294 0.130021
vt 0.328568 0.171096
vt 0.363856 0.207444
vn -0.000000 -0.758400 0.651800
vn -0.541400 -0.722100 0.430600
vn -0.311900 -0.921300 0.232400
vn -0.000000 -0.438300 0.898800
vn -0.704100 -0.402900 0.584700
vn -0.000000 0.000000 1.000000
vn -0.764300 0.000000 0.644900
vn -0.000000 0.438300 0.898800
vn -0.704100 0.402900 0.584700
vn -0.000000 0.758400 0.651800
vn -0.541400 0.722100 0.430600
vn -0.000000 0.935000 0.354500
vn -0.311900 0.921300 0.232400
vn -0.725200 -0.688600 -0.000000
vn -0.416700 -0.909000 -0.000000
vn -0.929100 -0.369900 -0.000000
vn -1.000000 -0.000000 -0.000000
vn -0.929100 0.369900 -0.000000
vn -0.725200 0.688600 -0.000000
vn -0.416700 0.909000 -0.000000
vn -0.541400 -0.722100 -0.430600
vn -0.704100 -0.402900 -0.584700
vn -0.764300 -0.000000 -0.644900
vn -0.704100 0.402900 -0.584700
vn -0.541400 0.722100 -0.430600
vn -0.311900 0.921300 -0.232400
vn -0.000000 -1.000000 -0.000000
vn -0.000000 -0.935000 0.354500
vn 0.000000 1.000000 -0.000000
vn -0.311900 -0.921300 -0.232400
vn -0.000000 -0.935000 -0.354500
vn 0.000000 -0.758400 -0.651800
vn 0.000000 -0.438300 -0.898800
vn 0.000000 -0.000000 -1.000000
vn 0.000000 0.438300 -0.898800
vn 0.000000 0.758400 -0.651800
vn 0.000000 0.935000 -0.354500
vn 0.311900 -0.921300 0.232400
vn 0.541400 -0.722100 0.430600
vn 0.704100 -0.402900 0.584700
vn 0.764300 0.000000 0.644900
vn 0.704100 0.402900 0.584700
vn 0.541400 0.722100 0.430600
vn 0.311900 0.921300 0.232400
vn 0.416700 -0.909000 -0.000000
vn 0.725200 -0.688600 -0.000000
vn 0.929100 -0.369900 -0.000000
vn 1.000000 0.000000 -0.000000
vn 0.929100 0.369900 -0.000000
vn 0.725200 0.688600 -0.000000
vn 0.416700 0.909000 -0.000000
vn 0.311900 -0.921300 -0.232400
vn 0.541400 -0.722100 -0.430600
vn 0.704100 -0.402900 -0.584700
vn 0.764300 -0.000000 -0.644900
vn 0.704100 0.402900 -0.584700
vn 0.541400 0.722100 -0.430600
vn 0.311900 0.921300 -0.232400
usemtl None.006
s 1
f 1/1/1 2/2/2 3/3/3
f 4/4/4 5/5/5 2/2/2
f 6/6/6 7/7/7 5/5/5
f 6/6/6 8/8/8 9/9/9
f 8/8/8 10/10/10 11/11/11
f 10/10/10 12/12/12 13/13/13
f 2/2/2 14/14/14 15/15/15
f 5/5/5 16/16/16 14/14/14
f 7/7/7 17/17/17 16/16/16
f 7/7/7 9/9/9 18/18/18
f 9/9/9 11/11/11 19/19/19
f 11/11/11 13/13/13 20/20/20
f 15/15/15 14/14/14 21/21/21
f 14/14/14 16/16/16 22/22/22
f 16/16/16 17/17/17 23/23/23
f 18/18/18 24/24/24 23/23/23
f 19/19/19 25/25/25 24/24/24
f 20/20/20 26/26/26 25/25/25
f 27/27/27 28/28/28 3/3/3
f 12/12/12 29/29/29 13/13/13
f 27/27/27 3/3/3 15/15/15
f 13/13/13 29/29/29 20/20/20
f 27/27/27 15/15/15 30/30/30
f 20/20/20 29/29/29 26/26/26
f 27/27/27 30/30/30 31/31/31
f 30/30/30 21/21/21 32/32/32
f 21/21/21 22/22/22 33/33/33
f 22/22/22 23/23/23 34/34/34
f 24/24/24 35/35/35 34/34/34
f 25/25/25 36/36/36 35/35/35
f 26/26/26 37/37/37 36/36/36
f 26/26/26 29/29/29 37/37/37
f 38/3/38 39/2/39 1/1/1
f 39/2/39 40/5/40 4/4/4
f 40/5/40 41/7/41 6/6/6
f 6/6/6 41/7/41 42/9/42
f 8/8/8 42/9/42 43/11/43
f 10/10/10 43/11/43 44/13/44
f 45/15/45 46/14/46 39/2/39
f 46/14/46 47/16/47 40/5/40
f 47/16/47 48/17/48 41/7/41
f 41/7/41 48/17/48 49/18/49
f 42/9/42 49/18/49 50/19/50
f 43/11/43 50/19/50 51/20/51
f 45/15/45 52/30/52 53/21/53
f 46/14/46 53/21/53 54/22/54
f 47/16/47 54/22/54 55/23/55
f 55/23/55 56/24/56 49/18/49
f 56/24/56 57/25/57 50/19/50
f 57/25/57 58/26/58 51/20/51
f 27/27/27 38/3/38 28/28/28
f 12/12/12 44/13/44 29/29/29
f 27/27/27 45/15/45 38/3/38
f 44/13/44 51/20/51 29/29/29
f 27/27/27 52/30/52 45/15/45
f 51/20/51 58/26/58 29/29/29
f 27/27/27 31/31/31 52/30/52
f 52/30/52 31/31/31 32/32/32
f 53/21/53 32/32/32 33/33/33
f 54/22/54 33/33/33 34/34/34
f 34/34/34 35/35/35 56/24/56
f 35/35/35 36/36/36 57/25/57
f 36/36/36 37/37/37 58/26/58
f 58/26/58 37/37/37 29/29/29
f 28/28/28 1/1/1 3/3/3
f 1/1/1 4/4/4 2/2/2
f 4/4/4 6/6/6 5/5/5
f 7/7/7 6/6/6 9/9/9
f 9/9/9 8/8/8 11/11/11
f 11/11/11 10/10/10 13/13/13
f 3/3/3 2/2/2 15/15/15
f 2/2/2 5/5/5 14/14/14
f 5/5/5 7/7/7 16/16/16
f 17/17/17 7/7/7 18/18/18
f 18/18/18 9/9/9 19/19/19
f 19/19/19 11/11/11 20/20/20
f 30/30/30 15/15/15 21/21/21
f 21/21/21 14/14/14 22/22/22
f 22/22/22 16/16/16 23/23/23
f 17/17/17 18/18/18 23/23/23
f 18/18/18 19/19/19 24/24/24
f 19/19/19 20/20/20 25/25/25
f 31/31/31 30/30/30 32/32/32
f 32/32/32 21/21/21 33/33/33
f 33/33/33 22/22/22 34/34/34
f 23/23/23 24/24/24 34/34/34
f 24/24/24 25/25/25 35/35/35
f 25/25/25 26/26/26 36/36/36
f 28/28/28 38/3/38 1/1/1
f 1/1/1 39/2/39 4/4/4
f 4/4/4 40/5/40 6/6/6
f 8/8/8 6/6/6 42/9/42
f 10/10/10 8/8/8 43/11/43
f 12/12/12 10/10/10 44/13/44
f 38/3/38 45/15/45 39/2/39
f 39/2/39 46/14/46 40/5/40
f 40/5/40 47/16/47 41/7/41
f 42/9/42 41/7/41 49/18/49
f 43/11/43 42/9/42 50/19/50
f 44/13/44 43/11/43 51/20/51
f 46/14/46 45/15/45 53/21/53
f 47/16/47 46/14/46 54/22/54
f 48/17/48 47/16/47 55/23/55
f 48/17/48 55/23/55 49/18/49
f 49/18/49 56/24/56 50/19/50
f 50/19/50 57/25/57 51/20/51
f 53/21/53 52/30/52 32/32/32
f 54/22/54 53/21/53 33/33/33
f 55/23/55 54/22/54 34/34/34
f 55/23/55 34/34/34 56/24/56
f 56/24/56 35/35/35 57/25/57
f 57/25/57 36/36/36 58/26/58
