# Blender v2.74 (sub 0) OBJ File: ''
# www.blender.org
mtllib worm_mesh_end.mtl
o worm_mesh_end.003
v 0.000003 -0.118886 0.154165
v -0.081658 -0.118886 0.109011
v -0.043089 -0.155332 0.058997
v 0.000003 -0.064341 0.201427
v -0.107430 -0.064341 0.142430
v 0.000003 -0.000000 0.218023
v -0.116479 0.000000 0.154165
v 0.000003 0.064341 0.201427
v -0.107429 0.064341 0.142430
v 0.000003 0.118886 0.154165
v -0.081658 0.118886 0.109011
v 0.000003 0.155332 0.083434
v -0.043089 0.155332 0.058997
v -0.116479 -0.118886 -0.000000
v -0.061934 -0.155332 -0.000000
v -0.152926 -0.064341 -0.000000
v -0.165723 0.000000 -0.000000
v -0.152925 0.064341 -0.000000
v -0.116479 0.118886 -0.000000
v -0.061933 0.155332 -0.000000
v -0.081658 -0.118886 -0.109011
v -0.107430 -0.064341 -0.142430
v -0.116479 0.000000 -0.154165
v -0.107429 0.064341 -0.142430
v -0.081658 0.118886 -0.109011
v -0.043089 0.155332 -0.058996
v 0.000003 -0.168130 0.000000
v 0.000003 -0.155332 0.083434
v 0.000003 0.168130 0.000000
v -0.043089 -0.155332 -0.058996
v 0.000003 -0.155332 -0.083433
v 0.000003 -0.118886 -0.154165
v 0.000003 -0.064341 -0.201426
v 0.000003 -0.000000 -0.218022
v 0.000003 0.064341 -0.201426
v 0.000003 0.118886 -0.154165
v 0.000003 0.155332 -0.083433
v 0.043095 -0.155332 0.058997
v 0.081664 -0.118886 0.109011
v 0.107435 -0.064341 0.142430
v 0.116485 -0.000000 0.154165
v 0.107435 0.064341 0.142430
v 0.081664 0.118886 0.109011
v 0.043095 0.155332 0.058997
v 0.061939 -0.155332 0.000000
v 0.116485 -0.118886 0.000000
v 0.152931 -0.064341 0.000000
v 0.165729 -0.000000 0.000000
v 0.152931 0.064341 0.000000
v 0.116485 0.118886 0.000000
v 0.061939 0.155332 0.000000
v 0.043095 -0.155332 -0.058996
v 0.081664 -0.118886 -0.109011
v 0.107435 -0.064341 -0.142430
v 0.116485 -0.000000 -0.154165
v 0.107435 0.064341 -0.142430
v 0.081664 0.118886 -0.109011
v 0.043095 0.155332 -0.058996
vt 0.440027 0.260896
vt 0.398548 0.270874
vt 0.388853 0.243523
vt 0.453708 0.295425
vt 0.401495 0.295022
vt 0.453026 0.328130
vt 0.399819 0.317182
vt 0.440741 0.358446
vt 0.392611 0.338203
vt 0.414539 0.384770
vt 0.380369 0.359226
vt 0.375221 0.401131
vt 0.360663 0.380527
vt 0.358683 0.266611
vt 0.363471 0.243345
vt 0.354470 0.287088
vt 0.350372 0.307008
vt 0.346273 0.326927
vt 0.342060 0.347404
vt 0.337273 0.370670
vt 0.320374 0.254789
vt 0.308132 0.275813
vt 0.300924 0.296834
vt 0.299248 0.318993
vt 0.302195 0.343141
vt 0.311891 0.370492
vt 0.369738 0.212885
vt 0.410362 0.230341
vt 0.331006 0.401131
vt 0.340080 0.233488
vt 0.325522 0.212884
vt 0.286204 0.229245
vt 0.260002 0.255569
vt 0.247717 0.285886
vt 0.247035 0.318591
vt 0.260716 0.353120
vt 0.290382 0.383675
vn -0.000000 -0.758400 0.651800
vn -0.541800 -0.722100 0.430200
vn -0.312400 -0.921100 0.232200
vn 0.000000 -0.438300 0.898800
vn -0.704600 -0.402900 0.584200
vn 0.000000 0.000000 1.000000
vn -0.764700 0.000000 0.644400
vn -0.000000 0.438300 0.898800
vn -0.704600 0.402900 0.584200
vn 0.000000 0.758400 0.651800
vn -0.541800 0.722000 0.430200
vn -0.000000 0.934900 0.354900
vn -0.312400 0.921100 0.232200
vn -0.725200 -0.688600 -0.000000
vn -0.417200 -0.908800 -0.000000
vn -0.929100 -0.369900 -0.000000
vn -1.000000 0.000000 -0.000000
vn -0.929100 0.369900 -0.000000
vn -0.725200 0.688600 -0.000000
vn -0.417200 0.908800 -0.000000
vn -0.541800 -0.722100 -0.430200
vn -0.704600 -0.402900 -0.584200
vn -0.764700 0.000000 -0.644400
vn -0.704600 0.402900 -0.584200
vn -0.541800 0.722100 -0.430200
vn -0.312400 0.921100 -0.232200
vn 0.000000 -1.000000 -0.000000
vn -0.000000 -0.934900 0.354900
vn 0.000000 1.000000 -0.000000
vn -0.312400 -0.921100 -0.232200
vn 0.000000 -0.934900 -0.354900
vn -0.000000 -0.758400 -0.651800
vn 0.000000 -0.438300 -0.898800
vn 0.000000 0.000000 -1.000000
vn 0.000000 0.438300 -0.898800
vn 0.000000 0.758400 -0.651800
vn 0.000000 0.934900 -0.354900
vn 0.312400 -0.921100 0.232200
vn 0.541800 -0.722000 0.430200
vn 0.704600 -0.402900 0.584200
vn 0.764700 -0.000000 0.644400
vn 0.704600 0.402900 0.584200
vn 0.541800 0.722000 0.430200
vn 0.312400 0.921100 0.232200
vn 0.417200 -0.908800 -0.000000
vn 0.725200 -0.688600 0.000000
vn 0.929100 -0.369900 0.000000
vn 1.000000 -0.000000 0.000000
vn 0.929100 0.369900 0.000000
vn 0.725200 0.688600 0.000000
vn 0.417200 0.908800 -0.000000
vn 0.312400 -0.921100 -0.232200
vn 0.541800 -0.722100 -0.430200
vn 0.704600 -0.402900 -0.584200
vn 0.764700 -0.000000 -0.644400
vn 0.704600 0.402900 -0.584200
vn 0.541800 0.722100 -0.430200
vn 0.312400 0.921100 -0.232200
usemtl None.005
s 1
f 1/1/1 2/2/2 3/3/3
f 4/4/4 5/5/5 2/2/2
f 6/6/6 7/7/7 5/5/5
f 6/6/6 8/8/8 9/9/9
f 8/8/8 10/10/10 11/11/11
f 10/10/10 12/12/12 13/13/13
f 2/2/2 14/14/14 15/15/15
f 5/5/5 16/16/16 14/14/14
f 7/7/7 17/17/17 16/16/16
f 7/7/7 9/9/9 18/18/18
f 9/9/9 11/11/11 19/19/19
f 11/11/11 13/13/13 20/20/20
f 15/15/15 14/14/14 21/21/21
f 14/14/14 16/16/16 22/22/22
f 16/16/16 17/17/17 23/23/23
f 18/18/18 24/24/24 23/23/23
f 19/19/19 25/25/25 24/24/24
f 20/20/20 26/26/26 25/25/25
f 27/27/27 28/28/28 3/3/3
f 12/12/12 29/29/29 13/13/13
f 27/27/27 3/3/3 15/15/15
f 13/13/13 29/29/29 20/20/20
f 27/27/27 15/15/15 30/30/30
f 20/20/20 29/29/29 26/26/26
f 27/27/27 30/30/30 31/31/31
f 30/30/30 21/21/21 32/32/32
f 21/21/21 22/22/22 33/33/33
f 22/22/22 23/23/23 34/34/34
f 24/24/24 35/35/35 34/34/34
f 25/25/25 36/36/36 35/35/35
f 26/26/26 37/37/37 36/36/36
f 26/26/26 29/29/29 37/37/37
f 38/3/38 39/2/39 1/1/1
f 39/2/39 40/5/40 4/4/4
f 40/5/40 41/7/41 6/6/6
f 6/6/6 41/7/41 42/9/42
f 8/8/8 42/9/42 43/11/43
f 10/10/10 43/11/43 44/13/44
f 45/15/45 46/14/46 39/2/39
f 46/14/46 47/16/47 40/5/40
f 47/16/47 48/17/48 41/7/41
f 41/7/41 48/17/48 49/18/49
f 42/9/42 49/18/49 50/19/50
f 43/11/43 50/19/50 51/20/51
f 45/15/45 52/30/52 53/21/53
f 46/14/46 53/21/53 54/22/54
f 47/16/47 54/22/54 55/23/55
f 55/23/55 56/24/56 49/18/49
f 56/24/56 57/25/57 50/19/50
f 57/25/57 58/26/58 51/20/51
f 27/27/27 38/3/38 28/28/28
f 12/12/12 44/13/44 29/29/29
f 27/27/27 45/15/45 38/3/38
f 44/13/44 51/20/51 29/29/29
f 27/27/27 52/30/52 45/15/45
f 51/20/51 58/26/58 29/29/29
f 27/27/27 31/31/31 52/30/52
f 52/30/52 31/31/31 32/32/32
f 53/21/53 32/32/32 33/33/33
f 54/22/54 33/33/33 34/34/34
f 34/34/34 35/35/35 56/24/56
f 35/35/35 36/36/36 57/25/57
f 36/36/36 37/37/37 58/26/58
f 58/26/58 37/37/37 29/29/29
f 28/28/28 1/1/1 3/3/3
f 1/1/1 4/4/4 2/2/2
f 4/4/4 6/6/6 5/5/5
f 7/7/7 6/6/6 9/9/9
f 9/9/9 8/8/8 11/11/11
f 11/11/11 10/10/10 13/13/13
f 3/3/3 2/2/2 15/15/15
f 2/2/2 5/5/5 14/14/14
f 5/5/5 7/7/7 16/16/16
f 17/17/17 7/7/7 18/18/18
f 18/18/18 9/9/9 19/19/19
f 19/19/19 11/11/11 20/20/20
f 30/30/30 15/15/15 21/21/21
f 21/21/21 14/14/14 22/22/22
f 22/22/22 16/16/16 23/23/23
f 17/17/17 18/18/18 23/23/23
f 18/18/18 19/19/19 24/24/24
f 19/19/19 20/20/20 25/25/25
f 31/31/31 30/30/30 32/32/32
f 32/32/32 21/21/21 33/33/33
f 33/33/33 22/22/22 34/34/34
f 23/23/23 24/24/24 34/34/34
f 24/24/24 25/25/25 35/35/35
f 25/25/25 26/26/26 36/36/36
f 28/28/28 38/3/38 1/1/1
f 1/1/1 39/2/39 4/4/4
f 4/4/4 40/5/40 6/6/6
f 8/8/8 6/6/6 42/9/42
f 10/10/10 8/8/8 43/11/43
f 12/12/12 10/10/10 44/13/44
f 38/3/38 45/15/45 39/2/39
f 39/2/39 46/14/46 40/5/40
f 40/5/40 47/16/47 41/7/41
f 42/9/42 41/7/41 49/18/49
f 43/11/43 42/9/42 50/19/50
f 44/13/44 43/11/43 51/20/51
f 46/14/46 45/15/45 53/21/53
f 47/16/47 46/14/46 54/22/54
f 48/17/48 47/16/47 55/23/55
f 48/17/48 55/23/55 49/18/49
f 49/18/49 56/24/56 50/19/50
f 50/19/50 57/25/57 51/20/51
f 53/21/53 52/30/52 32/32/32
f 54/22/54 53/21/53 33/33/33
f 55/23/55 54/22/54 34/34/34
f 55/23/55 34/34/34 56/24/56
f 56/24/56 35/35/35 57/25/57
f 57/25/57 36/36/36 58/26/58
