# Blender v2.74 (sub 0) OBJ File: ''
# www.blender.org
mtllib worm_mesh_head.mtl
o worm_mesh_head.001
v 0.000000 -0.174818 -0.226274
v 0.121210 -0.174818 -0.160000
v 0.064495 -0.228410 -0.086591
v 0.000000 -0.094611 -0.295641
v 0.159106 -0.094611 -0.209050
v 0.000000 0.000000 -0.320000
v 0.172413 0.000000 -0.226274
v 0.000000 0.094610 -0.295641
v 0.159106 0.094610 -0.209050
v 0.000000 0.174817 -0.226274
v 0.121210 0.174817 -0.160000
v 0.000000 0.228410 -0.122459
v 0.064495 0.228410 -0.086591
v 0.172413 -0.174818 -0.000000
v 0.092206 -0.228410 -0.000000
v 0.226006 -0.094611 -0.000000
v 0.244825 0.000000 0.000000
v 0.226006 0.094611 0.000000
v 0.172413 0.174817 0.000000
v 0.092206 0.228410 0.000000
v 0.121210 -0.174818 0.160000
v 0.159106 -0.094611 0.209050
v 0.172414 -0.000000 0.226274
v 0.159106 0.094611 0.209050
v 0.121210 0.174817 0.160000
v 0.064496 0.228410 0.086591
v 0.000000 -0.247229 -0.000000
v 0.000000 -0.228410 -0.122459
v 0.000000 0.247229 0.000000
v 0.064496 -0.228410 0.086591
v 0.000000 -0.228410 0.122459
v 0.000000 -0.174818 0.226274
v 0.000000 -0.094611 0.295641
v 0.000000 -0.000000 0.320000
v 0.000000 0.094611 0.295641
v 0.000000 0.174817 0.226274
v 0.000000 0.228410 0.122459
v -0.064495 -0.228410 -0.086591
v -0.121210 -0.174818 -0.160000
v -0.159106 -0.094611 -0.209050
v -0.172413 0.000000 -0.226274
v -0.159106 0.094610 -0.209050
v -0.121210 0.174817 -0.160000
v -0.064495 0.228410 -0.086591
v -0.092206 -0.228410 -0.000000
v -0.172413 -0.174818 -0.000000
v -0.226006 -0.094611 -0.000000
v -0.244825 0.000000 0.000000
v -0.226006 0.094611 0.000000
v -0.172413 0.174817 0.000000
v -0.092206 0.228410 0.000000
v -0.064496 -0.228410 0.086591
v -0.121210 -0.174818 0.160000
v -0.159106 -0.094611 0.209050
v -0.172414 -0.000000 0.226274
v -0.159106 0.094611 0.209050
v -0.121210 0.174817 0.160000
v -0.064496 0.228410 0.086591
vt 0.291934 0.074859
vt 0.230958 0.089537
vt 0.216762 0.049333
vt 0.312006 0.125619
vt 0.235257 0.125030
vt 0.310979 0.173712
vt 0.232778 0.157602
vt 0.292914 0.218294
vt 0.222182 0.188502
vt 0.254415 0.256989
vt 0.204205 0.219407
vt 0.196662 0.281033
vt 0.175276 0.250726
vt 0.172454 0.083289
vt 0.179500 0.049084
vt 0.166254 0.113385
vt 0.160224 0.142656
vt 0.154195 0.171928
vt 0.147995 0.202023
vt 0.140948 0.236228
vt 0.116243 0.065907
vt 0.098267 0.096811
vt 0.087672 0.127711
vt 0.085193 0.160283
vt 0.089492 0.195775
vt 0.103686 0.235978
vt 0.188728 0.004280
vt 0.248386 0.029946
vt 0.131719 0.281031
vt 0.145172 0.034587
vt 0.123784 0.004280
vt 0.066033 0.028327
vt 0.027536 0.067022
vt 0.009473 0.111603
vt 0.008447 0.159694
vt 0.028517 0.210452
vt 0.072063 0.255364
vn 0.000000 -0.757900 -0.652400
vn 0.540900 -0.721900 -0.431700
vn 0.311300 -0.921300 -0.233000
vn 0.000000 -0.437800 -0.899100
vn 0.703400 -0.402700 -0.585700
vn 0.000000 0.000000 -1.000000
vn 0.763400 0.000000 -0.645900
vn 0.000000 0.437800 -0.899100
vn 0.703400 0.402700 -0.585700
vn 0.000000 0.757900 -0.652400
vn 0.540900 0.721900 -0.431700
vn 0.000000 0.935000 -0.354700
vn 0.311300 0.921300 -0.233000
vn 0.725200 -0.688500 -0.000000
vn 0.416300 -0.909200 -0.000000
vn 0.929100 -0.369900 -0.000000
vn 1.000000 0.000000 -0.000000
vn 0.929100 0.369900 -0.000000
vn 0.725200 0.688500 -0.000000
vn 0.416300 0.909200 -0.000000
vn 0.540900 -0.721900 0.431700
vn 0.703400 -0.402700 0.585700
vn 0.763400 0.000000 0.645900
vn 0.703400 0.402700 0.585700
vn 0.540900 0.721900 0.431700
vn 0.311300 0.921300 0.233000
vn 0.000000 -1.000000 -0.000000
vn 0.000000 -0.935000 -0.354700
vn 0.000000 1.000000 -0.000000
vn 0.311300 -0.921300 0.233000
vn 0.000000 -0.935000 0.354700
vn 0.000000 -0.757900 0.652400
vn 0.000000 -0.437800 0.899100
vn 0.000000 0.000000 1.000000
vn 0.000000 0.437800 0.899100
vn 0.000000 0.757900 0.652400
vn 0.000000 0.935000 0.354700
vn -0.311300 -0.921300 -0.233000
vn -0.540900 -0.721900 -0.431700
vn -0.703400 -0.402700 -0.585700
vn -0.763400 0.000000 -0.645900
vn -0.703400 0.402700 -0.585700
vn -0.540900 0.721900 -0.431700
vn -0.311300 0.921300 -0.233000
vn -0.416300 -0.909200 -0.000000
vn -0.725200 -0.688500 -0.000000
vn -0.929100 -0.369900 -0.000000
vn -1.000000 0.000000 -0.000000
vn -0.929100 0.369900 -0.000000
vn -0.725200 0.688500 -0.000000
vn -0.416300 0.909200 -0.000000
vn -0.311300 -0.921300 0.233000
vn -0.540900 -0.721900 0.431700
vn -0.703400 -0.402700 0.585700
vn -0.763400 -0.000000 0.645900
vn -0.703400 0.402700 0.585700
vn -0.540900 0.721900 0.431700
vn -0.311300 0.921300 0.233000
usemtl None.001
s 1
f 1/1/1 2/2/2 3/3/3
f 4/4/4 5/5/5 2/2/2
f 6/6/6 7/7/7 5/5/5
f 6/6/6 8/8/8 9/9/9
f 8/8/8 10/10/10 11/11/11
f 10/10/10 12/12/12 13/13/13
f 2/2/2 14/14/14 15/15/15
f 5/5/5 16/16/16 14/14/14
f 7/7/7 17/17/17 16/16/16
f 7/7/7 9/9/9 18/18/18
f 9/9/9 11/11/11 19/19/19
f 11/11/11 13/13/13 20/20/20
f 15/15/15 14/14/14 21/21/21
f 14/14/14 16/16/16 22/22/22
f 16/16/16 17/17/17 23/23/23
f 18/18/18 24/24/24 23/23/23
f 19/19/19 25/25/25 24/24/24
f 20/20/20 26/26/26 25/25/25
f 27/27/27 28/28/28 3/3/3
f 12/12/12 29/29/29 13/13/13
f 27/27/27 3/3/3 15/15/15
f 13/13/13 29/29/29 20/20/20
f 27/27/27 15/15/15 30/30/30
f 20/20/20 29/29/29 26/26/26
f 27/27/27 30/30/30 31/31/31
f 30/30/30 21/21/21 32/32/32
f 21/21/21 22/22/22 33/33/33
f 22/22/22 23/23/23 34/34/34
f 24/24/24 35/35/35 34/34/34
f 25/25/25 36/36/36 35/35/35
f 26/26/26 37/37/37 36/36/36
f 26/26/26 29/29/29 37/37/37
f 38/3/38 39/2/39 1/1/1
f 39/2/39 40/5/40 4/4/4
f 40/5/40 41/7/41 6/6/6
f 6/6/6 41/7/41 42/9/42
f 8/8/8 42/9/42 43/11/43
f 10/10/10 43/11/43 44/13/44
f 45/15/45 46/14/46 39/2/39
f 46/14/46 47/16/47 40/5/40
f 47/16/47 48/17/48 41/7/41
f 41/7/41 48/17/48 49/18/49
f 42/9/42 49/18/49 50/19/50
f 43/11/43 50/19/50 51/20/51
f 45/15/45 52/30/52 53/21/53
f 46/14/46 53/21/53 54/22/54
f 47/16/47 54/22/54 55/23/55
f 55/23/55 56/24/56 49/18/49
f 56/24/56 57/25/57 50/19/50
f 57/25/57 58/26/58 51/20/51
f 27/27/27 38/3/38 28/28/28
f 12/12/12 44/13/44 29/29/29
f 27/27/27 45/15/45 38/3/38
f 44/13/44 51/20/51 29/29/29
f 27/27/27 52/30/52 45/15/45
f 51/20/51 58/26/58 29/29/29
f 27/27/27 31/31/31 52/30/52
f 52/30/52 31/31/31 32/32/32
f 53/21/53 32/32/32 33/33/33
f 54/22/54 33/33/33 34/34/34
f 34/34/34 35/35/35 56/24/56
f 35/35/35 36/36/36 57/25/57
f 36/36/36 37/37/37 58/26/58
f 58/26/58 37/37/37 29/29/29
f 28/28/28 1/1/1 3/3/3
f 1/1/1 4/4/4 2/2/2
f 4/4/4 6/6/6 5/5/5
f 7/7/7 6/6/6 9/9/9
f 9/9/9 8/8/8 11/11/11
f 11/11/11 10/10/10 13/13/13
f 3/3/3 2/2/2 15/15/15
f 2/2/2 5/5/5 14/14/14
f 5/5/5 7/7/7 16/16/16
f 17/17/17 7/7/7 18/18/18
f 18/18/18 9/9/9 19/19/19
f 19/19/19 11/11/11 20/20/20
f 30/30/30 15/15/15 21/21/21
f 21/21/21 14/14/14 22/22/22
f 22/22/22 16/16/16 23/23/23
f 17/17/17 18/18/18 23/23/23
f 18/18/18 19/19/19 24/24/24
f 19/19/19 20/20/20 25/25/25
f 31/31/31 30/30/30 32/32/32
f 32/32/32 21/21/21 33/33/33
f 33/33/33 22/22/22 34/34/34
f 23/23/23 24/24/24 34/34/34
f 24/24/24 25/25/25 35/35/35
f 25/25/25 26/26/26 36/36/36
f 28/28/28 38/3/38 1/1/1
f 1/1/1 39/2/39 4/4/4
f 4/4/4 40/5/40 6/6/6
f 8/8/8 6/6/6 42/9/42
f 10/10/10 8/8/8 43/11/43
f 12/12/12 10/10/10 44/13/44
f 38/3/38 45/15/45 39/2/39
f 39/2/39 46/14/46 40/5/40
f 40/5/40 47/16/47 41/7/41
f 42/9/42 41/7/41 49/18/49
f 43/11/43 42/9/42 50/19/50
f 44/13/44 43/11/43 51/20/51
f 46/14/46 45/15/45 53/21/53
f 47/16/47 46/14/46 54/22/54
f 48/17/48 47/16/47 55/23/55
f 48/17/48 55/23/55 49/18/49
f 49/18/49 56/24/56 50/19/50
f 50/19/50 57/25/57 51/20/51
f 53/21/53 52/30/52 32/32/32
f 54/22/54 53/21/53 33/33/33
f 55/23/55 54/22/54 34/34/34
f 55/23/55 34/34/34 56/24/56
f 56/24/56 35/35/35 57/25/57
f 57/25/57 36/36/36 58/26/58
o Action_button1.001
v -0.100000 -0.115952 -0.095159
v 0.100000 -0.115952 -0.095159
v 0.100000 -0.143541 -0.043543
v -0.100000 -0.070710 -0.132288
v 0.100000 -0.070709 -0.132288
v -0.100000 0.043543 -0.143541
v 0.100000 0.043543 -0.143541
v 0.100000 -0.014702 -0.149278
v -0.100000 0.095159 -0.115952
v 0.100000 0.095159 -0.115952
v -0.100000 0.132288 -0.070710
v 0.100000 0.132288 -0.070710
v -0.100000 0.149278 -0.014703
v 0.100000 0.149278 -0.014703
v -0.100000 0.143541 0.043543
v 0.100000 0.143541 0.043543
v -0.100000 0.115951 0.095159
v 0.100000 0.115952 0.095159
v -0.100000 0.070709 0.132288
v 0.100000 0.070709 0.132288
v -0.100000 0.014703 0.149278
v 0.100000 0.014703 0.149278
v -0.100000 -0.043543 0.143541
v 0.100000 -0.043542 0.143541
v -0.100000 -0.095159 0.115952
v 0.100000 -0.095159 0.115952
v -0.100000 -0.132288 0.070710
v 0.100000 -0.132288 0.070710
v -0.100000 -0.149278 0.014703
v 0.100000 -0.149278 0.014703
v -0.100000 -0.143541 -0.043543
v -0.100000 -0.014703 -0.149278
vt 0.537041 0.729524
vt 0.537041 0.763935
vt 0.526910 0.763935
vt 0.547172 0.729524
vt 0.547172 0.763935
vt 0.405326 0.729518
vt 0.405326 0.763941
vt 0.395191 0.763941
vt 0.415460 0.729519
vt 0.415461 0.763941
vt 0.425595 0.729519
vt 0.425595 0.763941
vt 0.435728 0.729520
vt 0.435730 0.763939
vt 0.445861 0.729521
vt 0.445863 0.763938
vt 0.455993 0.729522
vt 0.455994 0.763937
vt 0.466125 0.729523
vt 0.466125 0.763936
vt 0.476256 0.729523
vt 0.476256 0.763936
vt 0.486387 0.729524
vt 0.486387 0.763935
vt 0.496518 0.729524
vt 0.496518 0.763935
vt 0.506649 0.729524
vt 0.506649 0.763935
vt 0.516779 0.729524
vt 0.516779 0.763935
vt 0.526910 0.729524
vt 0.445100 0.808884
vt 0.438131 0.781061
vt 0.451399 0.766423
vt 0.385799 0.783486
vt 0.435875 0.796029
vt 0.404566 0.814795
vt 0.395192 0.729518
vt 0.385056 0.763941
vt 0.461168 0.763977
vt 0.453739 0.814061
vt 0.481558 0.807092
vt 0.473470 0.813091
vt 0.463701 0.815539
vt 0.479768 0.770633
vt 0.486736 0.798453
vt 0.485767 0.778722
vt 0.488214 0.788491
vt 0.471130 0.765455
vt 0.443309 0.772422
vt 0.439101 0.800794
vt 0.436654 0.791024
vt 0.397568 0.767618
vt 0.407050 0.764225
vt 0.417109 0.764719
vt 0.390105 0.774382
vt 0.388698 0.803027
vt 0.385305 0.793545
vt 0.395461 0.810489
vt 0.424107 0.811897
vt 0.414625 0.815289
vt 0.431569 0.805133
vt 0.432977 0.776488
vt 0.436370 0.785970
vt 0.426213 0.769025
vt 0.385057 0.729517
vn -0.665700 -0.576800 -0.473400
vn 0.665700 -0.576800 -0.473400
vn 0.665700 -0.714100 -0.216600
vn -0.665700 -0.351800 -0.658100
vn 0.665700 -0.351800 -0.658100
vn -0.665700 0.216600 -0.714100
vn 0.665700 0.216600 -0.714100
vn 0.665700 -0.073100 -0.742600
vn -0.665700 0.473400 -0.576800
vn 0.665700 0.473400 -0.576800
vn -0.665700 0.658100 -0.351800
vn 0.665700 0.658100 -0.351800
vn -0.665700 0.742600 -0.073100
vn 0.665700 0.742600 -0.073100
vn -0.665700 0.714100 0.216600
vn 0.665700 0.714100 0.216600
vn -0.665700 0.576800 0.473400
vn 0.665700 0.576800 0.473400
vn -0.665700 0.351800 0.658100
vn 0.665700 0.351800 0.658100
vn -0.665700 0.073100 0.742600
vn 0.665700 0.073100 0.742600
vn -0.665700 -0.216600 0.714100
vn 0.665700 -0.216600 0.714100
vn -0.665700 -0.473400 0.576800
vn 0.665700 -0.473400 0.576800
vn -0.665700 -0.658100 0.351800
vn 0.665700 -0.658100 0.351800
vn -0.665700 -0.742600 0.073100
vn 0.665700 -0.742600 0.073100
vn -0.665700 -0.714100 -0.216600
vn -0.665700 -0.073100 -0.742600
usemtl None.001
s 1
f 59/38/59 60/39/60 61/40/61
f 62/41/62 63/42/63 60/39/60
f 64/43/64 65/44/65 66/45/66
f 67/46/67 68/47/68 65/44/65
f 69/48/69 70/49/70 68/47/68
f 71/50/71 72/51/72 70/49/70
f 73/52/73 74/53/74 72/51/72
f 73/52/73 75/54/75 76/55/76
f 75/54/75 77/56/77 78/57/78
f 79/58/79 80/59/80 78/57/78
f 79/58/79 81/60/81 82/61/82
f 81/60/81 83/62/83 84/63/84
f 85/64/85 86/65/86 84/63/84
f 87/66/87 88/67/88 86/65/86
f 87/66/87 89/68/89 61/40/61
f 87/69/87 81/70/81 77/71/77
f 78/72/78 63/73/63 70/74/70
f 90/75/90 66/45/66 63/76/63
f 89/68/89 59/38/59 61/40/61
f 59/38/59 62/41/62 60/39/60
f 90/75/90 64/43/64 66/45/66
f 64/43/64 67/46/67 65/44/65
f 67/46/67 69/48/69 68/47/68
f 69/48/69 71/50/71 70/49/70
f 71/50/71 73/52/73 72/51/72
f 74/53/74 73/52/73 76/55/76
f 76/55/76 75/54/75 78/57/78
f 77/56/77 79/58/79 78/57/78
f 80/59/80 79/58/79 82/61/82
f 82/61/82 81/60/81 84/63/84
f 83/62/83 85/64/85 84/63/84
f 85/64/85 87/66/87 86/65/86
f 88/67/88 87/66/87 61/40/61
f 75/77/75 89/78/89 87/69/87
f 90/79/90 62/80/62 59/81/59
f 71/82/71 64/83/64 90/79/90
f 71/82/71 69/84/69 67/85/67
f 75/77/75 73/86/73 71/82/71
f 87/69/87 77/71/77 75/77/75
f 77/71/77 81/70/81 79/87/79
f 87/69/87 85/88/85 83/89/83
f 90/79/90 59/81/59 89/78/89
f 71/82/71 67/85/67 64/83/64
f 90/79/90 75/77/75 71/82/71
f 87/69/87 83/89/83 81/70/81
f 75/77/75 90/79/90 89/78/89
f 82/90/82 84/91/84 86/92/86
f 78/72/78 80/93/80 82/90/82
f 74/94/74 76/95/76 78/72/78
f 70/74/70 72/96/72 74/94/74
f 65/97/65 68/98/68 70/74/70
f 63/73/63 66/99/66 65/97/65
f 61/100/61 60/101/60 63/73/63
f 86/92/86 88/102/88 61/100/61
f 78/72/78 82/90/82 86/92/86
f 70/74/70 74/94/74 78/72/78
f 63/73/63 65/97/65 70/74/70
f 86/92/86 61/100/61 63/73/63
f 63/73/63 78/72/78 86/92/86
f 62/103/62 90/75/90 63/76/63
