# This file uses centimeters as units for non-parametric coordinates.

v 11.433191 -4.494586 -3.756021
v 9.729762 -4.494586 -7.106173
v 7.076609 -4.494586 -9.764869
v 3.733440 -4.494586 -11.471857
v 0.027511 -4.494586 -12.060044
v -3.678418 -4.494586 -11.471856
v -7.021585 -4.494586 -9.764867
v -9.674735 -4.494586 -7.106171
v -11.378165 -4.494586 -3.756019
v -11.965126 -4.494586 -0.042349
v -11.378165 -4.494586 3.671322
v -9.674735 -4.494586 7.021472
v -7.021583 -4.494586 9.680167
v -3.678417 -4.494586 11.387153
v 0.027511 -4.494586 11.975340
v 3.733438 -4.494586 11.387152
v 7.076603 -4.494586 9.680166
v 9.729756 -4.494586 7.021472
v 11.433184 -4.494586 3.671321
v 12.020145 -4.494586 -0.042349
v 11.433191 4.432188 -3.756021
v 9.729762 4.432188 -7.106173
v 7.076609 4.432188 -9.764869
v 3.733440 4.432188 -11.471857
v 0.027511 4.432188 -12.060044
v -3.678418 4.432188 -11.471856
v -7.021585 4.432188 -9.764867
v -9.674735 4.432188 -7.106171
v -11.378165 4.432188 -3.756019
v -11.965126 4.432188 -0.042349
v -11.378165 4.432188 3.671322
v -9.674735 4.432188 7.021472
v -7.021583 4.432188 9.680167
v -3.678417 4.432188 11.387153
v 0.027511 4.432188 11.975340
v 3.733438 4.432188 11.387152
v 7.076603 4.432188 9.680166
v 9.729756 4.432188 7.021472
v 11.433184 4.432188 3.671321
v 12.020145 4.432188 -0.042349
vt 0.199810 0.003348
vt 0.199810 0.996631
vt 0.149729 0.996631
vt 0.149729 0.003348
vt 0.099708 0.996631
vt 0.099708 0.003348
vt 0.049748 0.003348
vt 1.000239 0.996631
vt 1.000239 0.003348
vt 0.950316 0.996631
vt 0.950316 0.003348
vt 0.900356 0.996631
vt 0.900356 0.003348
vt 0.850335 0.996631
vt 0.850335 0.003348
vt 0.800254 0.996631
vt 0.800254 0.003348
vt 0.750135 0.996631
vt 0.750135 0.003348
vt 0.700017 0.996631
vt 0.700017 0.003348
vt 0.649936 0.996631
vt 0.649936 0.003348
vt 0.599915 0.996631
vt 0.599915 0.003348
vt 0.549955 0.996631
vt 0.549955 0.003348
vt 0.500032 0.996631
vt 0.500032 0.003348
vt 0.450109 0.996631
vt 0.450109 0.003348
vt 0.400148 0.996631
vt 0.400148 0.003348
vt 0.350128 0.996631
vt 0.350128 0.003348
vt 0.300047 0.996631
vt 0.300047 0.003348
vt 0.249928 0.996631
vt 0.249928 0.003348
vt 0.049748 0.996631
vt -0.000175 0.996631
vt -0.000175 0.003348
vn -0.891389 0.000000 0.453238
vn -0.891389 0.000000 0.453238
vn -0.891389 0.000000 0.453238
vn -0.891389 0.000000 0.453238
vn -0.707844 0.000000 0.706369
vn -0.707844 0.000000 0.706369
vn -0.707844 0.000000 0.706369
vn -0.707844 0.000000 0.706369
vn -0.454743 0.000000 0.890623
vn -0.454743 0.000000 0.890623
vn -0.454743 0.000000 0.890623
vn -0.454743 0.000000 0.890623
vn -0.156753 0.000000 0.987638
vn -0.156753 0.000000 0.987638
vn -0.156753 0.000000 0.987638
vn -0.156753 0.000000 0.987638
vn 0.156754 0.000000 0.987638
vn 0.156753 0.000000 0.987638
vn 0.156754 0.000000 0.987638
vn 0.156753 0.000000 0.987638
vn 0.454744 0.000000 0.890622
vn 0.454743 0.000000 0.890623
vn 0.454744 0.000000 0.890622
vn 0.454743 0.000000 0.890623
vn 0.707844 0.000000 0.706368
vn 0.707845 0.000000 0.706368
vn 0.707844 0.000000 0.706368
vn 0.707845 0.000000 0.706368
vn 0.891389 0.000000 0.453239
vn 0.891389 0.000000 0.453239
vn 0.891389 0.000000 0.453239
vn 0.891389 0.000000 0.453239
vn 0.987739 0.000000 0.156116
vn 0.987739 0.000000 0.156116
vn 0.987739 0.000000 0.156116
vn 0.987739 0.000000 0.156116
vn 0.987739 0.000000 -0.156116
vn 0.987739 0.000000 -0.156116
vn 0.987739 0.000000 -0.156116
vn 0.987739 0.000000 -0.156116
vn 0.891389 0.000000 -0.453239
vn 0.891389 0.000000 -0.453239
vn 0.891389 0.000000 -0.453239
vn 0.891389 0.000000 -0.453239
vn 0.707844 0.000000 -0.706369
vn 0.707844 0.000000 -0.706368
vn 0.707844 0.000000 -0.706369
vn 0.707844 0.000000 -0.706368
vn 0.454743 0.000000 -0.890623
vn 0.454743 0.000000 -0.890623
vn 0.454743 0.000000 -0.890623
vn 0.454743 0.000000 -0.890623
vn 0.156753 0.000000 -0.987638
vn 0.156753 0.000000 -0.987638
vn 0.156753 0.000000 -0.987638
vn 0.156753 0.000000 -0.987638
vn -0.156753 0.000000 -0.987638
vn -0.156753 0.000000 -0.987638
vn -0.156753 0.000000 -0.987638
vn -0.156753 0.000000 -0.987638
vn -0.454743 0.000000 -0.890622
vn -0.454743 0.000000 -0.890623
vn -0.454743 0.000000 -0.890623
vn -0.454742 0.000000 -0.890623
vn -0.707844 0.000000 -0.706368
vn -0.707844 0.000000 -0.706369
vn -0.707844 0.000000 -0.706368
vn -0.707844 0.000000 -0.706369
vn -0.891389 0.000000 -0.453239
vn -0.891389 0.000000 -0.453239
vn -0.891389 0.000000 -0.453239
vn -0.891389 0.000000 -0.453239
vn -0.987739 0.000000 -0.156116
vn -0.987739 0.000000 -0.156116
vn -0.987739 0.000000 -0.156116
vn -0.987739 0.000000 -0.156116
vn -0.987739 0.000000 0.156114
vn -0.987739 0.000000 0.156114
vn -0.987739 0.000000 0.156114
vn -0.987739 0.000000 0.156114
f 1/1/1 21/2/2 2/4/3
f 2/4/3 21/2/2 22/3/4
f 2/4/5 22/3/6 3/6/7
f 3/6/7 22/3/6 23/5/8
f 3/6/9 23/5/10 4/7/11
f 4/7/11 23/5/10 24/40/12
f 4/7/13 24/40/14 5/42/15
f 5/42/15 24/40/14 25/41/16
f 5/9/17 25/8/18 6/11/19
f 6/11/19 25/8/18 26/10/20
f 6/11/21 26/10/22 7/13/23
f 7/13/23 26/10/22 27/12/24
f 7/13/25 27/12/26 8/15/27
f 8/15/27 27/12/26 28/14/28
f 8/15/29 28/14/30 9/17/31
f 9/17/31 28/14/30 29/16/32
f 9/17/33 29/16/34 10/19/35
f 10/19/35 29/16/34 30/18/36
f 10/19/37 30/18/38 11/21/39
f 11/21/39 30/18/38 31/20/40
f 11/21/41 31/20/42 12/23/43
f 12/23/43 31/20/42 32/22/44
f 12/23/45 32/22/46 13/25/47
f 13/25/47 32/22/46 33/24/48
f 13/25/49 33/24/50 14/27/51
f 14/27/51 33/24/50 34/26/52
f 14/27/53 34/26/54 15/29/55
f 15/29/55 34/26/54 35/28/56
f 15/29/57 35/28/58 16/31/59
f 16/31/59 35/28/58 36/30/60
f 16/31/61 36/30/62 17/33/63
f 17/33/63 36/30/62 37/32/64
f 17/33/65 37/32/66 18/35/67
f 18/35/67 37/32/66 38/34/68
f 18/35/69 38/34/70 19/37/71
f 19/37/71 38/34/70 39/36/72
f 19/37/73 39/36/74 20/39/75
f 20/39/75 39/36/74 40/38/76
f 20/39/77 40/38/78 1/1/79
f 1/1/79 40/38/78 21/2/80
