# 3ds Max Wavefront OBJ Exporter v0.97b - (c)2007 guruware
# File Created: 06.10.2015 16:44:31

mtllib skybox_mesh.mtl

#
# object GeoSphere001
#

v  26.5474 96.1938 -0.2597
v  -0.7792 100.0000 -0.2597
v  7.6652 96.1938 -26.2489
v  51.7939 85.0651 -0.2597
v  35.4011 89.4427 -26.5463
v  15.4668 85.0651 -50.2597
v  73.0383 67.4609 -0.2597
v  61.0073 74.0398 -26.7274
v  43.4861 74.0398 -50.8432
v  22.0316 67.4609 -70.4644
v  88.6635 44.7214 -0.2597
v  81.4827 50.5721 -26.2489
v  68.0399 52.5731 -50.2597
v  49.3583 50.5721 -70.4644
v  26.8601 44.7214 -85.3248
v  -22.8869 96.1938 -16.3219
v  -14.5989 89.4427 -42.7923
v  -43.3118 85.0651 -31.1614
v  -6.8584 74.0398 -67.2011
v  -35.2082 74.0398 -57.9897
v  -60.4989 67.4609 -43.6486
v  -0.0761 50.5721 -86.5266
v  -27.0658 52.5731 -81.1614
v  -52.0545 50.5721 -69.6378
v  -73.1399 44.7214 -52.8328
v  -22.8869 96.1938 15.8025
v  -45.5006 89.4427 -0.2597
v  -43.3118 85.0651 30.6420
v  -66.3228 74.0398 -15.1641
v  -66.3228 74.0398 14.6447
v  -60.4988 67.4609 43.1291
v  -82.6066 50.5721 -27.5864
v  -85.8443 52.5731 -0.2597
v  -82.6066 50.5721 27.0669
v  -73.1399 44.7214 52.3134
v  7.6652 96.1938 25.7295
v  -14.5989 89.4427 42.2728
v  15.4668 85.0651 49.7403
v  -35.2082 74.0398 57.4702
v  -6.8584 74.0398 66.6816
v  22.0317 67.4609 69.9449
v  -52.0544 50.5721 69.1183
v  -27.0658 52.5731 80.6420
v  -0.0761 50.5721 86.0071
v  26.8601 44.7214 84.8053
v  35.4011 89.4427 26.0268
v  43.4861 74.0398 50.3237
v  61.0073 74.0398 26.2079
v  49.3583 50.5721 69.9449
v  68.0399 52.5731 49.7403
v  81.4827 50.5721 25.7294
v  95.1460 23.2454 15.8025
v  95.1460 23.2454 -16.3219
v  94.3264 0.0000 30.6420
v  99.2208 0.0000 -0.2597
v  94.3264 0.0000 -31.1614
v  86.2671 -23.2454 43.1291
v  94.7560 -25.5124 14.6447
v  94.7560 -25.5124 -15.1641
v  86.2671 -23.2454 -43.6486
v  71.5815 -44.7214 52.3134
v  81.0481 -50.5721 27.0669
v  84.2859 -52.5731 -0.2597
v  81.0481 -50.5721 -27.5864
v  71.5815 -44.7214 -52.8328
v  44.1394 23.2454 -86.5266
v  13.5872 23.2454 -96.4536
v  57.9993 0.0000 -81.1614
v  30.1225 0.0000 -95.3654
v  -0.7792 0.0000 -100.2597
v  67.3848 -23.2454 -69.6378
v  42.9177 -25.5124 -86.5134
v  14.5679 -25.5124 -95.7248
v  -15.1457 -23.2454 -96.4536
v  50.4960 -50.5721 -69.6378
v  25.5073 -52.5731 -81.1614
v  -1.4824 -50.5721 -86.5266
v  -28.4185 -44.7214 -85.3248
v  -68.9433 23.2454 -69.6378
v  -87.8255 23.2454 -43.6486
v  -59.5578 0.0000 -81.1614
v  -81.6809 0.0000 -59.0383
v  -95.8849 0.0000 -31.1614
v  -45.6978 -23.2454 -86.5266
v  -69.3083 -25.5124 -68.4719
v  -86.8294 -25.5124 -44.3560
v  -96.7045 -23.2454 -16.3219
v  -50.9167 -50.5721 -70.4644
v  -69.5983 -52.5731 -50.2597
v  -83.0411 -50.5721 -26.2489
v  -90.2219 -44.7214 -0.2597
v  -87.8255 23.2454 43.1291
v  -68.9432 23.2454 69.1183
v  -95.8849 0.0000 30.6420
v  -81.6809 0.0000 58.5188
v  -59.5577 0.0000 80.6420
v  -96.7045 -23.2454 15.8025
v  -86.8294 -25.5124 43.8365
v  -69.3082 -25.5124 67.9524
v  -45.6978 -23.2454 86.0071
v  -83.0412 -50.5721 25.7295
v  -69.5983 -52.5731 49.7403
v  -50.9167 -50.5721 69.9449
v  -28.4185 -44.7214 84.8053
v  13.5873 23.2454 95.9341
v  44.1394 23.2454 86.0071
v  -0.7792 0.0000 99.7403
v  30.1225 0.0000 94.8459
v  57.9993 0.0000 80.6420
v  -15.1457 -23.2454 95.9341
v  14.5679 -25.5124 95.2053
v  42.9177 -25.5124 85.9939
v  67.3848 -23.2454 69.1183
v  -1.4823 -50.5721 86.0071
v  25.5073 -52.5731 80.6420
v  50.4960 -50.5721 69.1183
v  80.1225 0.0000 -59.0383
v  67.7498 25.5124 -68.4719
v  85.2710 25.5124 -44.3560
v  -31.6809 0.0000 -95.3654
v  -44.4762 25.5124 -86.5134
v  -16.1263 25.5124 -95.7248
v  -100.7792 0.0000 -0.2597
v  -96.3144 25.5124 14.6447
v  -96.3144 25.5124 -15.1641
v  -31.6809 0.0000 94.8459
v  -16.1263 25.5124 95.2054
v  -44.4761 25.5124 85.9939
v  80.1225 0.0000 58.5188
v  85.2710 25.5124 43.8365
v  67.7498 25.5124 67.9524
v  -9.2236 -96.1938 -26.2489
v  -0.7792 -100.0000 -0.2597
v  21.3285 -96.1938 -16.3219
v  -17.0252 -85.0651 -50.2597
v  13.0404 -89.4427 -42.7923
v  41.7533 -85.0651 -31.1614
v  -23.5901 -67.4609 -70.4644
v  5.2999 -74.0398 -67.2011
v  33.6498 -74.0398 -57.9897
v  58.9404 -67.4609 -43.6486
v  -28.1059 -96.1938 -0.2597
v  -53.3523 -85.0651 -0.2597
v  -36.9596 -89.4427 -26.5463
v  -74.5967 -67.4609 -0.2597
v  -62.5657 -74.0398 -26.7274
v  -45.0445 -74.0398 -50.8432
v  -9.2236 -96.1938 25.7295
v  -17.0252 -85.0651 49.7403
v  -36.9596 -89.4427 26.0268
v  -23.5901 -67.4609 69.9449
v  -45.0445 -74.0398 50.3237
v  -62.5657 -74.0398 26.2079
v  21.3285 -96.1938 15.8025
v  41.7533 -85.0651 30.6420
v  13.0404 -89.4427 42.2728
v  58.9404 -67.4609 43.1291
v  33.6498 -74.0398 57.4702
v  5.3000 -74.0398 66.6816
v  43.9421 -89.4427 -0.2597
v  64.7644 -74.0398 -15.1641
v  64.7644 -74.0398 14.6447
# 162 vertices

vn -0.2713 -0.9625 -0.0000
vn -0.0000 -1.0000 0.0000
vn -0.0838 -0.9625 0.2580
vn -0.5250 -0.8511 -0.0000
vn -0.3638 -0.8932 0.2643
vn -0.1622 -0.8511 0.4993
vn -0.7394 -0.6732 0.0000
vn -0.6197 -0.7376 0.2680
vn -0.4464 -0.7376 0.5066
vn -0.2285 -0.6732 0.7032
vn -0.8944 -0.4472 0.0000
vn -0.8219 -0.5060 0.2615
vn -0.6882 -0.5257 0.5000
vn -0.5027 -0.5060 0.7009
vn -0.2764 -0.4472 0.8507
vn 0.2195 -0.9625 0.1595
vn 0.1390 -0.8932 0.4277
vn 0.4248 -0.8511 0.3086
vn 0.0634 -0.7376 0.6722
vn 0.3438 -0.7376 0.5811
vn 0.5982 -0.6732 0.4346
vn -0.0053 -0.5060 0.8625
vn 0.2629 -0.5257 0.8090
vn 0.5112 -0.5060 0.6947
vn 0.7236 -0.4472 0.5257
vn 0.2195 -0.9625 -0.1595
vn 0.4497 -0.8932 -0.0000
vn 0.4248 -0.8511 -0.3086
vn 0.6589 -0.7376 0.1474
vn 0.6589 -0.7376 -0.1474
vn 0.5982 -0.6732 -0.4346
vn 0.8187 -0.5060 0.2715
vn 0.8507 -0.5257 -0.0000
vn 0.8187 -0.5060 -0.2715
vn 0.7236 -0.4472 -0.5257
vn -0.0838 -0.9625 -0.2580
vn 0.1390 -0.8932 -0.4277
vn -0.1622 -0.8511 -0.4993
vn 0.3438 -0.7376 -0.5811
vn 0.0634 -0.7376 -0.6722
vn -0.2285 -0.6732 -0.7032
vn 0.5112 -0.5060 -0.6947
vn 0.2629 -0.5257 -0.8090
vn -0.0053 -0.5060 -0.8625
vn -0.2764 -0.4472 -0.8507
vn -0.3638 -0.8932 -0.2643
vn -0.4464 -0.7376 -0.5066
vn -0.6197 -0.7376 -0.2680
vn -0.5027 -0.5060 -0.7009
vn -0.6882 -0.5257 -0.5000
vn -0.8219 -0.5060 -0.2615
vn -0.9584 -0.2353 -0.1615
vn -0.9584 -0.2353 0.1615
vn -0.9511 -0.0000 -0.3090
vn -1.0000 0.0027 -0.0000
vn -0.9511 0.0000 0.3090
vn -0.8703 0.2353 -0.4327
vn -0.9544 0.2595 -0.1474
vn -0.9544 0.2595 0.1474
vn -0.8703 0.2353 0.4327
vn -0.7236 0.4472 -0.5257
vn -0.8187 0.5060 -0.2715
vn -0.8507 0.5257 -0.0000
vn -0.8187 0.5060 0.2715
vn -0.7236 0.4472 0.5257
vn -0.4497 -0.2353 0.8616
vn -0.1426 -0.2353 0.9614
vn -0.5878 0.0000 0.8090
vn -0.3090 0.0027 0.9511
vn -0.0000 -0.0000 1.0000
vn -0.6805 0.2353 0.6940
vn -0.4351 0.2595 0.8622
vn -0.1547 0.2595 0.9533
vn 0.1426 0.2353 0.9614
vn -0.5112 0.5060 0.6947
vn -0.2629 0.5257 0.8090
vn 0.0053 0.5060 0.8625
vn 0.2764 0.4472 0.8507
vn 0.6805 -0.2353 0.6940
vn 0.8703 -0.2353 0.4327
vn 0.5878 -0.0000 0.8090
vn 0.8090 0.0027 0.5878
vn 0.9511 -0.0000 0.3090
vn 0.4497 0.2353 0.8616
vn 0.6855 0.2595 0.6803
vn 0.8588 0.2595 0.4417
vn 0.9584 0.2353 0.1615
vn 0.5027 0.5060 0.7009
vn 0.6882 0.5257 0.5000
vn 0.8219 0.5060 0.2615
vn 0.8944 0.4472 0.0000
vn 0.8703 -0.2353 -0.4327
vn 0.6805 -0.2353 -0.6940
vn 0.9511 0.0000 -0.3090
vn 0.8090 0.0027 -0.5878
vn 0.5878 0.0000 -0.8090
vn 0.9584 0.2353 -0.1615
vn 0.8588 0.2595 -0.4417
vn 0.6855 0.2595 -0.6803
vn 0.4497 0.2353 -0.8616
vn 0.8219 0.5060 -0.2615
vn 0.6882 0.5257 -0.5000
vn 0.5027 0.5060 -0.7009
vn 0.2764 0.4472 -0.8507
vn -0.1426 -0.2353 -0.9614
vn -0.4497 -0.2353 -0.8616
vn -0.0000 0.0000 -1.0000
vn -0.3090 0.0027 -0.9511
vn -0.5878 -0.0000 -0.8090
vn 0.1426 0.2353 -0.9614
vn -0.1547 0.2595 -0.9533
vn -0.4351 0.2595 -0.8622
vn -0.6805 0.2353 -0.6940
vn 0.0053 0.5060 -0.8625
vn -0.2629 0.5257 -0.8090
vn -0.5112 0.5060 -0.6947
vn -0.8090 -0.0027 0.5878
vn -0.6855 -0.2595 0.6803
vn -0.8588 -0.2595 0.4417
vn 0.3090 -0.0027 0.9511
vn 0.4351 -0.2595 0.8622
vn 0.1547 -0.2595 0.9533
vn 1.0000 -0.0027 -0.0000
vn 0.9544 -0.2595 -0.1474
vn 0.9544 -0.2595 0.1474
vn 0.3090 -0.0027 -0.9511
vn 0.1547 -0.2595 -0.9533
vn 0.4351 -0.2595 -0.8622
vn -0.8090 -0.0027 -0.5878
vn -0.8588 -0.2595 -0.4417
vn -0.6855 -0.2595 -0.6803
vn 0.0838 0.9625 0.2580
vn 0.0000 1.0000 0.0000
vn -0.2195 0.9625 0.1595
vn 0.1622 0.8511 0.4993
vn -0.1390 0.8932 0.4277
vn -0.4248 0.8511 0.3086
vn 0.2285 0.6732 0.7032
vn -0.0634 0.7376 0.6722
vn -0.3438 0.7376 0.5811
vn -0.5982 0.6732 0.4346
vn 0.2713 0.9625 -0.0000
vn 0.5250 0.8511 -0.0000
vn 0.3638 0.8932 0.2643
vn 0.7394 0.6732 0.0000
vn 0.6197 0.7376 0.2680
vn 0.4464 0.7376 0.5066
vn 0.0838 0.9625 -0.2580
vn 0.1622 0.8511 -0.4993
vn 0.3638 0.8932 -0.2643
vn 0.2285 0.6732 -0.7032
vn 0.4464 0.7376 -0.5066
vn 0.6197 0.7376 -0.2680
vn -0.2195 0.9625 -0.1595
vn -0.4248 0.8511 -0.3086
vn -0.1390 0.8932 -0.4277
vn -0.5982 0.6732 -0.4346
vn -0.3438 0.7376 -0.5811
vn -0.0634 0.7376 -0.6722
vn -0.4497 0.8932 -0.0000
vn -0.6589 0.7376 0.1474
vn -0.6589 0.7376 -0.1474
# 162 vertex normals

vt 1.5000 0.9119 1.0000
vt 1.7000 1.0000 1.0000
vt 1.9000 0.9119 1.0000
vt 1.5000 0.8238 1.0000
vt 1.7000 0.8524 1.0000
vt 1.9000 0.8238 1.0000
vt 1.5000 0.7357 1.0000
vt 1.6288 0.7654 1.0000
vt 1.7712 0.7654 1.0000
vt 1.9000 0.7357 1.0000
vt 1.5000 0.6476 1.0000
vt 1.5974 0.6688 1.0000
vt 1.7000 0.6762 1.0000
vt 1.8026 0.6688 1.0000
vt 1.9000 0.6476 1.0000
vt -0.1000 0.9119 1.0000
vt 0.1000 1.0000 1.0000
vt 0.3000 0.9119 1.0000
vt -0.1000 0.8238 1.0000
vt 0.1000 0.8524 1.0000
vt 0.3000 0.8238 1.0000
vt -0.1000 0.7357 1.0000
vt 0.0288 0.7654 1.0000
vt 0.1712 0.7654 1.0000
vt 0.3000 0.7357 1.0000
vt 1.9974 0.6688 1.0000
vt -0.0026 0.6688 1.0000
vt 0.1000 0.6762 1.0000
vt 0.2026 0.6688 1.0000
vt 0.3000 0.6476 1.0000
vt 0.5000 1.0000 1.0000
vt 0.7000 0.9119 1.0000
vt 0.5000 0.8524 1.0000
vt 0.7000 0.8238 1.0000
vt 0.4288 0.7654 1.0000
vt 0.5712 0.7654 1.0000
vt 0.7000 0.7357 1.0000
vt 0.3974 0.6688 1.0000
vt 0.5000 0.6762 1.0000
vt 0.6026 0.6688 1.0000
vt 0.7000 0.6476 1.0000
vt 0.9000 1.0000 1.0000
vt 1.1000 0.9119 1.0000
vt 0.9000 0.8524 1.0000
vt 1.1000 0.8238 1.0000
vt 0.8288 0.7654 1.0000
vt 0.9712 0.7654 1.0000
vt 1.1000 0.7357 1.0000
vt 0.7974 0.6688 1.0000
vt 0.9000 0.6762 1.0000
vt 1.0026 0.6688 1.0000
vt 1.1000 0.6476 1.0000
vt 1.3000 1.0000 1.0000
vt 1.3000 0.8524 1.0000
vt 1.2288 0.7654 1.0000
vt 1.3712 0.7654 1.0000
vt 1.1974 0.6688 1.0000
vt 1.3000 0.6762 1.0000
vt 1.4026 0.6688 1.0000
vt 1.4472 0.5747 1.0000
vt 1.5528 0.5747 1.0000
vt 1.4000 0.5000 1.0000
vt 1.5000 0.5000 1.0000
vt 1.6000 0.5000 1.0000
vt 1.3528 0.4253 1.0000
vt 1.4507 0.4179 1.0000
vt 1.5493 0.4179 1.0000
vt 1.6472 0.4253 1.0000
vt 1.3000 0.3524 1.0000
vt 1.3974 0.3312 1.0000
vt 1.5000 0.3238 1.0000
vt 1.6026 0.3312 1.0000
vt 1.7000 0.3524 1.0000
vt 1.8472 0.5747 1.0000
vt 1.9528 0.5747 1.0000
vt 1.8000 0.5000 1.0000
vt 1.9000 0.5000 1.0000
vt 2.0000 0.5000 1.0000
vt 1.7528 0.4253 1.0000
vt 1.8507 0.4179 1.0000
vt 1.9493 0.4179 1.0000
vt -0.0507 0.4179 1.0000
vt -0.0000 0.5000 1.0000
vt 0.0472 0.4253 1.0000
vt 1.7974 0.3312 1.0000
vt 1.9000 0.3238 1.0000
vt -0.1000 0.3238 1.0000
vt 0.0026 0.3312 1.0000
vt 0.1000 0.3524 1.0000
vt 0.2472 0.5747 1.0000
vt 0.3528 0.5747 1.0000
vt 0.2000 0.5000 1.0000
vt 0.3000 0.5000 1.0000
vt 0.4000 0.5000 1.0000
vt 0.1528 0.4253 1.0000
vt 0.2507 0.4179 1.0000
vt 0.3493 0.4179 1.0000
vt 0.4472 0.4253 1.0000
vt 0.1974 0.3312 1.0000
vt 0.3000 0.3238 1.0000
vt 0.4026 0.3312 1.0000
vt 0.5000 0.3524 1.0000
vt 0.6472 0.5747 1.0000
vt 0.7528 0.5747 1.0000
vt 0.6000 0.5000 1.0000
vt 0.7000 0.5000 1.0000
vt 0.8000 0.5000 1.0000
vt 0.5528 0.4253 1.0000
vt 0.6507 0.4179 1.0000
vt 0.7493 0.4179 1.0000
vt 0.8472 0.4253 1.0000
vt 0.5974 0.3312 1.0000
vt 0.7000 0.3238 1.0000
vt 0.8026 0.3312 1.0000
vt 0.9000 0.3524 1.0000
vt 1.0472 0.5747 1.0000
vt 1.1528 0.5747 1.0000
vt 1.0000 0.5000 1.0000
vt 1.1000 0.5000 1.0000
vt 1.2000 0.5000 1.0000
vt 0.9528 0.4253 1.0000
vt 1.0507 0.4179 1.0000
vt 1.1493 0.4179 1.0000
vt 1.2472 0.4253 1.0000
vt 0.9974 0.3312 1.0000
vt 1.1000 0.3238 1.0000
vt 1.2026 0.3312 1.0000
vt 1.7000 0.5000 1.0000
vt 1.7493 0.5821 1.0000
vt 1.6507 0.5821 1.0000
vt 0.1000 0.5000 1.0000
vt 0.1493 0.5821 1.0000
vt 0.0507 0.5821 1.0000
vt -0.0472 0.5747 1.0000
vt 0.5000 0.5000 1.0000
vt 0.5493 0.5821 1.0000
vt 0.4507 0.5821 1.0000
vt 0.9000 0.5000 1.0000
vt 0.9493 0.5821 1.0000
vt 0.8507 0.5821 1.0000
vt 1.3000 0.5000 1.0000
vt 1.3493 0.5821 1.0000
vt 1.2507 0.5821 1.0000
vt 0.1000 0.0881 1.0000
vt -0.1000 0.0000 1.0000
vt -0.3000 0.0881 1.0000
vt 0.1000 0.1762 1.0000
vt -0.1000 0.1476 1.0000
vt 1.9000 0.1476 1.0000
vt 1.7000 0.0881 1.0000
vt 1.7000 0.1762 1.0000
vt 0.1000 0.2643 1.0000
vt -0.0288 0.2346 1.0000
vt 1.9712 0.2346 1.0000
vt 1.8288 0.2346 1.0000
vt 1.7000 0.2643 1.0000
vt 0.5000 0.0881 1.0000
vt 0.3000 0.0000 1.0000
vt 0.5000 0.1762 1.0000
vt 0.3000 0.1476 1.0000
vt 0.5000 0.2643 1.0000
vt 0.3712 0.2346 1.0000
vt 0.2288 0.2346 1.0000
vt 0.9000 0.0881 1.0000
vt 0.7000 0.0000 1.0000
vt 0.9000 0.1762 1.0000
vt 0.7000 0.1476 1.0000
vt 0.9000 0.2643 1.0000
vt 0.7712 0.2346 1.0000
vt 0.6288 0.2346 1.0000
vt 1.3000 0.0881 1.0000
vt 1.1000 0.0000 1.0000
vt 1.3000 0.1762 1.0000
vt 1.1000 0.1476 1.0000
vt 1.3000 0.2643 1.0000
vt 1.1712 0.2346 1.0000
vt 1.0288 0.2346 1.0000
vt 1.5000 0.0000 1.0000
vt 1.5000 0.1476 1.0000
vt 1.5712 0.2346 1.0000
vt 1.4288 0.2346 1.0000
# 181 texture coords

g GeoSphere001
usemtl 01___Default
s 1
f 1/1/1 2/2/2 3/3/3 
f 4/4/4 1/1/1 5/5/5 
f 5/5/5 1/1/1 3/3/3 
f 5/5/5 3/3/3 6/6/6 
f 7/7/7 4/4/4 8/8/8 
f 8/8/8 4/4/4 5/5/5 
f 8/8/8 5/5/5 9/9/9 
f 9/9/9 5/5/5 6/6/6 
f 9/9/9 6/6/6 10/10/10 
f 11/11/11 7/7/7 12/12/12 
f 12/12/12 7/7/7 8/8/8 
f 12/12/12 8/8/8 13/13/13 
f 13/13/13 8/8/8 9/9/9 
f 13/13/13 9/9/9 14/14/14 
f 14/14/14 9/9/9 10/10/10 
f 14/14/14 10/10/10 15/15/15 
f 3/16/3 2/17/2 16/18/16 
f 6/19/6 3/16/3 17/20/17 
f 17/20/17 3/16/3 16/18/16 
f 17/20/17 16/18/16 18/21/18 
f 10/22/10 6/19/6 19/23/19 
f 19/23/19 6/19/6 17/20/17 
f 19/23/19 17/20/17 20/24/20 
f 20/24/20 17/20/17 18/21/18 
f 20/24/20 18/21/18 21/25/21 
f 15/15/15 10/10/10 22/26/22 
f 22/27/22 10/22/10 19/23/19 
f 22/27/22 19/23/19 23/28/23 
f 23/28/23 19/23/19 20/24/20 
f 23/28/23 20/24/20 24/29/24 
f 24/29/24 20/24/20 21/25/21 
f 24/29/24 21/25/21 25/30/25 
f 16/18/16 2/31/2 26/32/26 
f 18/21/18 16/18/16 27/33/27 
f 27/33/27 16/18/16 26/32/26 
f 27/33/27 26/32/26 28/34/28 
f 21/25/21 18/21/18 29/35/29 
f 29/35/29 18/21/18 27/33/27 
f 29/35/29 27/33/27 30/36/30 
f 30/36/30 27/33/27 28/34/28 
f 30/36/30 28/34/28 31/37/31 
f 25/30/25 21/25/21 32/38/32 
f 32/38/32 21/25/21 29/35/29 
f 32/38/32 29/35/29 33/39/33 
f 33/39/33 29/35/29 30/36/30 
f 33/39/33 30/36/30 34/40/34 
f 34/40/34 30/36/30 31/37/31 
f 34/40/34 31/37/31 35/41/35 
f 26/32/26 2/42/2 36/43/36 
f 28/34/28 26/32/26 37/44/37 
f 37/44/37 26/32/26 36/43/36 
f 37/44/37 36/43/36 38/45/38 
f 31/37/31 28/34/28 39/46/39 
f 39/46/39 28/34/28 37/44/37 
f 39/46/39 37/44/37 40/47/40 
f 40/47/40 37/44/37 38/45/38 
f 40/47/40 38/45/38 41/48/41 
f 35/41/35 31/37/31 42/49/42 
f 42/49/42 31/37/31 39/46/39 
f 42/49/42 39/46/39 43/50/43 
f 43/50/43 39/46/39 40/47/40 
f 43/50/43 40/47/40 44/51/44 
f 44/51/44 40/47/40 41/48/41 
f 44/51/44 41/48/41 45/52/45 
f 36/43/36 2/53/2 1/1/1 
f 38/45/38 36/43/36 46/54/46 
f 46/54/46 36/43/36 1/1/1 
f 46/54/46 1/1/1 4/4/4 
f 41/48/41 38/45/38 47/55/47 
f 47/55/47 38/45/38 46/54/46 
f 47/55/47 46/54/46 48/56/48 
f 48/56/48 46/54/46 4/4/4 
f 48/56/48 4/4/4 7/7/7 
f 45/52/45 41/48/41 49/57/49 
f 49/57/49 41/48/41 47/55/47 
f 49/57/49 47/55/47 50/58/50 
f 50/58/50 47/55/47 48/56/48 
f 50/58/50 48/56/48 51/59/51 
f 51/59/51 48/56/48 7/7/7 
f 51/59/51 7/7/7 11/11/11 
f 52/60/52 11/11/11 53/61/53 
f 54/62/54 52/60/52 55/63/55 
f 55/63/55 52/60/52 53/61/53 
f 55/63/55 53/61/53 56/64/56 
f 57/65/57 54/62/54 58/66/58 
f 58/66/58 54/62/54 55/63/55 
f 58/66/58 55/63/55 59/67/59 
f 59/67/59 55/63/55 56/64/56 
f 59/67/59 56/64/56 60/68/60 
f 61/69/61 57/65/57 62/70/62 
f 62/70/62 57/65/57 58/66/58 
f 62/70/62 58/66/58 63/71/63 
f 63/71/63 58/66/58 59/67/59 
f 63/71/63 59/67/59 64/72/64 
f 64/72/64 59/67/59 60/68/60 
f 64/72/64 60/68/60 65/73/65 
f 66/74/66 15/15/15 67/75/67 
f 68/76/68 66/74/66 69/77/69 
f 69/77/69 66/74/66 67/75/67 
f 69/77/69 67/75/67 70/78/70 
f 71/79/71 68/76/68 72/80/72 
f 72/80/72 68/76/68 69/77/69 
f 72/80/72 69/77/69 73/81/73 
f 73/81/73 69/77/69 70/78/70 
f 73/82/73 70/83/70 74/84/74 
f 65/73/65 71/79/71 75/85/75 
f 75/85/75 71/79/71 72/80/72 
f 75/85/75 72/80/72 76/86/76 
f 76/86/76 72/80/72 73/81/73 
f 76/87/76 73/82/73 77/88/77 
f 77/88/77 73/82/73 74/84/74 
f 77/88/77 74/84/74 78/89/78 
f 79/90/79 25/30/25 80/91/80 
f 81/92/81 79/90/79 82/93/82 
f 82/93/82 79/90/79 80/91/80 
f 82/93/82 80/91/80 83/94/83 
f 84/95/84 81/92/81 85/96/85 
f 85/96/85 81/92/81 82/93/82 
f 85/96/85 82/93/82 86/97/86 
f 86/97/86 82/93/82 83/94/83 
f 86/97/86 83/94/83 87/98/87 
f 78/89/78 84/95/84 88/99/88 
f 88/99/88 84/95/84 85/96/85 
f 88/99/88 85/96/85 89/100/89 
f 89/100/89 85/96/85 86/97/86 
f 89/100/89 86/97/86 90/101/90 
f 90/101/90 86/97/86 87/98/87 
f 90/101/90 87/98/87 91/102/91 
f 92/103/92 35/41/35 93/104/93 
f 94/105/94 92/103/92 95/106/95 
f 95/106/95 92/103/92 93/104/93 
f 95/106/95 93/104/93 96/107/96 
f 97/108/97 94/105/94 98/109/98 
f 98/109/98 94/105/94 95/106/95 
f 98/109/98 95/106/95 99/110/99 
f 99/110/99 95/106/95 96/107/96 
f 99/110/99 96/107/96 100/111/100 
f 91/102/91 97/108/97 101/112/101 
f 101/112/101 97/108/97 98/109/98 
f 101/112/101 98/109/98 102/113/102 
f 102/113/102 98/109/98 99/110/99 
f 102/113/102 99/110/99 103/114/103 
f 103/114/103 99/110/99 100/111/100 
f 103/114/103 100/111/100 104/115/104 
f 105/116/105 45/52/45 106/117/106 
f 107/118/107 105/116/105 108/119/108 
f 108/119/108 105/116/105 106/117/106 
f 108/119/108 106/117/106 109/120/109 
f 110/121/110 107/118/107 111/122/111 
f 111/122/111 107/118/107 108/119/108 
f 111/122/111 108/119/108 112/123/112 
f 112/123/112 108/119/108 109/120/109 
f 112/123/112 109/120/109 113/124/113 
f 104/115/104 110/121/110 114/125/114 
f 114/125/114 110/121/110 111/122/111 
f 114/125/114 111/122/111 115/126/115 
f 115/126/115 111/122/111 112/123/112 
f 115/126/115 112/123/112 116/127/116 
f 116/127/116 112/123/112 113/124/113 
f 116/127/116 113/124/113 61/69/61 
f 71/79/71 65/73/65 60/68/60 
f 68/76/68 71/79/71 117/128/117 
f 117/128/117 71/79/71 60/68/60 
f 117/128/117 60/68/60 56/64/56 
f 66/74/66 68/76/68 118/129/118 
f 118/129/118 68/76/68 117/128/117 
f 118/129/118 117/128/117 119/130/119 
f 119/130/119 117/128/117 56/64/56 
f 119/130/119 56/64/56 53/61/53 
f 15/15/15 66/74/66 14/14/14 
f 14/14/14 66/74/66 118/129/118 
f 14/14/14 118/129/118 13/13/13 
f 13/13/13 118/129/118 119/130/119 
f 13/13/13 119/130/119 12/12/12 
f 12/12/12 119/130/119 53/61/53 
f 12/12/12 53/61/53 11/11/11 
f 84/95/84 78/89/78 74/84/74 
f 81/92/81 84/95/84 120/131/120 
f 120/131/120 84/95/84 74/84/74 
f 120/131/120 74/84/74 70/83/70 
f 79/90/79 81/92/81 121/132/121 
f 121/132/121 81/92/81 120/131/120 
f 121/132/121 120/131/120 122/133/122 
f 122/133/122 120/131/120 70/83/70 
f 122/133/122 70/83/70 67/134/67 
f 25/30/25 79/90/79 24/29/24 
f 24/29/24 79/90/79 121/132/121 
f 24/29/24 121/132/121 23/28/23 
f 23/28/23 121/132/121 122/133/122 
f 23/28/23 122/133/122 22/27/22 
f 22/27/22 122/133/122 67/134/67 
f 22/26/22 67/75/67 15/15/15 
f 97/108/97 91/102/91 87/98/87 
f 94/105/94 97/108/97 123/135/123 
f 123/135/123 97/108/97 87/98/87 
f 123/135/123 87/98/87 83/94/83 
f 92/103/92 94/105/94 124/136/124 
f 124/136/124 94/105/94 123/135/123 
f 124/136/124 123/135/123 125/137/125 
f 125/137/125 123/135/123 83/94/83 
f 125/137/125 83/94/83 80/91/80 
f 35/41/35 92/103/92 34/40/34 
f 34/40/34 92/103/92 124/136/124 
f 34/40/34 124/136/124 33/39/33 
f 33/39/33 124/136/124 125/137/125 
f 33/39/33 125/137/125 32/38/32 
f 32/38/32 125/137/125 80/91/80 
f 32/38/32 80/91/80 25/30/25 
f 110/121/110 104/115/104 100/111/100 
f 107/118/107 110/121/110 126/138/126 
f 126/138/126 110/121/110 100/111/100 
f 126/138/126 100/111/100 96/107/96 
f 105/116/105 107/118/107 127/139/127 
f 127/139/127 107/118/107 126/138/126 
f 127/139/127 126/138/126 128/140/128 
f 128/140/128 126/138/126 96/107/96 
f 128/140/128 96/107/96 93/104/93 
f 45/52/45 105/116/105 44/51/44 
f 44/51/44 105/116/105 127/139/127 
f 44/51/44 127/139/127 43/50/43 
f 43/50/43 127/139/127 128/140/128 
f 43/50/43 128/140/128 42/49/42 
f 42/49/42 128/140/128 93/104/93 
f 42/49/42 93/104/93 35/41/35 
f 57/65/57 61/69/61 113/124/113 
f 54/62/54 57/65/57 129/141/129 
f 129/141/129 57/65/57 113/124/113 
f 129/141/129 113/124/113 109/120/109 
f 52/60/52 54/62/54 130/142/130 
f 130/142/130 54/62/54 129/141/129 
f 130/142/130 129/141/129 131/143/131 
f 131/143/131 129/141/129 109/120/109 
f 131/143/131 109/120/109 106/117/106 
f 11/11/11 52/60/52 51/59/51 
f 51/59/51 52/60/52 130/142/130 
f 51/59/51 130/142/130 50/58/50 
f 50/58/50 130/142/130 131/143/131 
f 50/58/50 131/143/131 49/57/49 
f 49/57/49 131/143/131 106/117/106 
f 49/57/49 106/117/106 45/52/45 
f 132/144/132 133/145/133 134/146/134 
f 135/147/135 132/144/132 136/148/136 
f 136/148/136 132/144/132 134/146/134 
f 136/149/136 134/150/134 137/151/137 
f 138/152/138 135/147/135 139/153/139 
f 139/153/139 135/147/135 136/148/136 
f 139/154/139 136/149/136 140/155/140 
f 140/155/140 136/149/136 137/151/137 
f 140/155/140 137/151/137 141/156/141 
f 78/89/78 138/152/138 77/88/77 
f 77/88/77 138/152/138 139/153/139 
f 77/88/77 139/153/139 76/87/76 
f 76/86/76 139/154/139 140/155/140 
f 76/86/76 140/155/140 75/85/75 
f 75/85/75 140/155/140 141/156/141 
f 75/85/75 141/156/141 65/73/65 
f 142/157/142 133/158/133 132/144/132 
f 143/159/143 142/157/142 144/160/144 
f 144/160/144 142/157/142 132/144/132 
f 144/160/144 132/144/132 135/147/135 
f 145/161/145 143/159/143 146/162/146 
f 146/162/146 143/159/143 144/160/144 
f 146/162/146 144/160/144 147/163/147 
f 147/163/147 144/160/144 135/147/135 
f 147/163/147 135/147/135 138/152/138 
f 91/102/91 145/161/145 90/101/90 
f 90/101/90 145/161/145 146/162/146 
f 90/101/90 146/162/146 89/100/89 
f 89/100/89 146/162/146 147/163/147 
f 89/100/89 147/163/147 88/99/88 
f 88/99/88 147/163/147 138/152/138 
f 88/99/88 138/152/138 78/89/78 
f 148/164/148 133/165/133 142/157/142 
f 149/166/149 148/164/148 150/167/150 
f 150/167/150 148/164/148 142/157/142 
f 150/167/150 142/157/142 143/159/143 
f 151/168/151 149/166/149 152/169/152 
f 152/169/152 149/166/149 150/167/150 
f 152/169/152 150/167/150 153/170/153 
f 153/170/153 150/167/150 143/159/143 
f 153/170/153 143/159/143 145/161/145 
f 104/115/104 151/168/151 103/114/103 
f 103/114/103 151/168/151 152/169/152 
f 103/114/103 152/169/152 102/113/102 
f 102/113/102 152/169/152 153/170/153 
f 102/113/102 153/170/153 101/112/101 
f 101/112/101 153/170/153 145/161/145 
f 101/112/101 145/161/145 91/102/91 
f 154/171/154 133/172/133 148/164/148 
f 155/173/155 154/171/154 156/174/156 
f 156/174/156 154/171/154 148/164/148 
f 156/174/156 148/164/148 149/166/149 
f 157/175/157 155/173/155 158/176/158 
f 158/176/158 155/173/155 156/174/156 
f 158/176/158 156/174/156 159/177/159 
f 159/177/159 156/174/156 149/166/149 
f 159/177/159 149/166/149 151/168/151 
f 61/69/61 157/175/157 116/127/116 
f 116/127/116 157/175/157 158/176/158 
f 116/127/116 158/176/158 115/126/115 
f 115/126/115 158/176/158 159/177/159 
f 115/126/115 159/177/159 114/125/114 
f 114/125/114 159/177/159 151/168/151 
f 114/125/114 151/168/151 104/115/104 
f 134/150/134 133/178/133 154/171/154 
f 137/151/137 134/150/134 160/179/160 
f 160/179/160 134/150/134 154/171/154 
f 160/179/160 154/171/154 155/173/155 
f 141/156/141 137/151/137 161/180/161 
f 161/180/161 137/151/137 160/179/160 
f 161/180/161 160/179/160 162/181/162 
f 162/181/162 160/179/160 155/173/155 
f 162/181/162 155/173/155 157/175/157 
f 65/73/65 141/156/141 64/72/64 
f 64/72/64 141/156/141 161/180/161 
f 64/72/64 161/180/161 63/71/63 
f 63/71/63 161/180/161 162/181/162 
f 63/71/63 162/181/162 62/70/62 
f 62/70/62 162/181/162 157/175/157 
f 62/70/62 157/175/157 61/69/61 
# 320 faces

