# Exported from Wings 3D 1.4.1
mtllib new_sphere_collision.mtl
o Sphere_Collision
#42 vertices, 80 faces
v 1.8661500e-8 0.49999999 -1.5784374e-8
v 0.47022846 0.22360679 -1.5784374e-8
v 0.14530840 0.22360679 -0.45964958
v -0.24173376 0.16832397 -0.19461565
v -0.38042276 0.22360679 0.28407921
v 0.14530874 0.22360679 0.45964958
v 0.28083441 -0.13883394 -0.19461565
v -0.14530870 -0.22360681 -0.45964958
v -0.47022843 -0.22360681 -1.5784374e-8
v -8.0251125e-2 -0.13883396 0.31619635
v 0.38042279 -0.22360681 0.28407903
v 1.8661500e-8 -0.50000001 -1.5784374e-8
v 0.27639324 0.42532538 -1.5784374e-8
v 7.8212265e-2 0.30686952 -0.18506611
v -0.22360674 0.42532538 -0.16697746
v -0.13402858 0.30686952 0.11518162
v 8.5410160e-2 0.42532538 0.27017521
v 0.26804620 0.19528790 -0.18506611
v -0.13819660 0.26286557 -0.43715285
v -0.44721385 0.26286554 -1.5784374e-8
v -7.5366630e-2 0.19528790 0.30074499
v 0.26804654 0.19528785 0.18606047
v 0.50000002 -4.2544010e-9 -0.16697746
v 1.9550342e-2 1.4745007e-2 -0.37062950
v -0.49999998 -4.2544010e-9 -0.16697746
v -0.30901688 -4.2544010e-9 0.43715284
v 0.23179118 1.4745007e-2 0.30074499
v 0.50000002 -4.2544010e-9 0.16697746
v 0.30901691 -4.2544010e-9 -0.43715276
v -0.30901724 -4.2544010e-9 -0.43715266
v -0.49999998 -4.2544010e-9 0.16697746
v 1.8661500e-8 -4.2544010e-9 0.54035042
v 0.13819663 -0.26286556 -0.43715266
v -0.36180337 -0.26286556 -0.27017522
v -0.36180337 -0.26286558 0.27017538
v 0.13819663 -0.26286554 0.43715266
v 0.44721389 -0.26286556 -1.5784374e-8
v 0.22360677 -0.42532539 -0.16697746
v -3.9111602e-2 -0.27737942 -0.18506611
v -0.27639323 -0.42532539 -1.5784374e-8
v -8.5410125e-2 -0.42532539 0.27017521
v 0.17312923 -0.27737942 0.11518162
vt 2.0000000e-3 7.8306000e-2
vt 8.8609000e-2 2.0000000e-3
vt 8.8609000e-2 0.14221600
vt 8.8609000e-2 0.28243200
vt 8.8609000e-2 0.35873800
vt 0.13191300 0.21852200
vt 0.17521700 7.8306000e-2
vt 0.17521700 0.15461200
vt 0.17521700 0.29482700
vt 0.17521700 0.43504300
vt 0.21852200 0.21852200
vt 0.26182600 2.0000000e-3
vt 0.26182600 0.14221600
vt 0.26182600 0.28243200
vt 0.26182600 0.35873800
vt 0.30513000 0.21852200
vt 0.34843500 7.8306000e-2
vt 0.34843500 0.15461200
vt 0.34843500 0.29482700
vt 0.34843500 0.43504300
vt 0.39173900 0.21852200
vt 0.43504300 2.0000000e-3
vt 0.43504300 0.14221600
vt 0.43504300 0.28243200
vt 0.43504300 0.35873800
vt 0.47834800 0.21852200
vt 0.52165200 7.8306000e-2
vt 0.52165200 0.15461200
vt 0.52165200 0.29482700
vt 0.52165200 0.43504300
vt 0.56495600 0.21852200
vt 0.60826100 2.0000000e-3
vt 0.60826100 0.14221600
vt 0.60826100 0.28243200
vt 0.60826100 0.35873800
vt 0.65156500 0.21852200
vt 0.69486900 7.8306000e-2
vt 0.69486900 0.15461200
vt 0.69486900 0.29482700
vt 0.69486900 0.43504300
vt 0.73817400 0.21852200
vt 0.78147800 2.0000000e-3
vt 0.78147800 0.14221600
vt 0.78147800 0.28243200
vt 0.78147800 0.35873800
vt 0.82478300 0.21852200
vt 0.86808700 7.8306000e-2
vt 0.86808700 0.15461200
vt 0.86808700 0.29482700
vt 0.86808700 0.43504300
vt 0.91139100 0.21852200
vt 0.95469600 0.14221600
vt 0.95469600 0.28243200
vt 0.95469600 0.35873800
vt 0.99800000 0.21852200
vn 0.19413626 0.71855672 -0.66782284
vn -0.57277403 0.67492890 0.46518909
vn 0.25650036 0.94938501 0.18131651
vn 0.24394340 0.72065314 -0.64896122
vn -0.63416764 0.67012628 0.38569699
vn 0.53761946 0.51660875 -0.66639381
vn 0.52019991 0.55438599 0.64965239
vn 0.99125267 0.13197782 0.0000000e+0
vn 0.53889685 0.51783622 0.66440638
vn 0.51802626 0.55500072 -0.65086327
vn -0.22880960 -0.26184786 -0.93759366
vn 0.50200218 0.85405689 -0.13631082
vn 0.11180289 0.95822824 -0.26324655
vn 0.78493594 0.54502792 -0.29465257
vn -0.11971172 -0.32739977 -0.93727184
vn -0.65085784 0.12641215 -0.74860139
vn -0.82976176 0.53921253 -0.14403217
vn -0.43147713 0.54385074 -0.71975958
vn -0.92870466 0.10378864 -0.35599940
vn -0.53367066 0.75689025 -0.37724367
vn 7.5727720e-3 0.56651303 0.82401799
vn -0.20162713 0.96269698 0.18044676
vn 5.2677720e-2 0.86307335 0.50232406
vn -0.90152920 0.34605797 0.25978642
vn -0.80930637 0.13319010 0.57208705
vn 0.79715925 0.52188365 0.30360267
vn -0.52704598 0.56999018 0.63034414
vn 0.91278363 7.2080639e-2 0.40203286
vn -0.55301345 0.47726472 0.68293082
vn 0.70814185 -0.21777890 0.67164535
vn 0.81986040 -0.53277733 -0.20970752
vn 0.43480438 -0.54344188 -0.71806411
vn 0.52946168 -0.76131009 -0.37426899
vn 0.88588775 -0.21653751 -0.41026137
vn 0.67639735 -0.20340405 -0.70789365
vn 0.18316892 0.23025873 -0.95573535
vn 7.2883899e-3 -0.98079768 -0.19489176
vn -0.57996596 -0.35062837 -0.73532254
vn -0.12450772 -0.98169973 -0.14409534
vn 0.11410804 0.27736421 -0.95396460
vn -0.88694179 -0.34631009 0.30562000
vn -0.88694169 -0.34631018 -0.30562019
vn -0.99125267 -0.13197780 0.0000000e+0
vn -0.70855307 -0.68086203 0.18541696
vn -0.70855304 -0.68086201 -0.18541713
vn -0.18869544 -0.80320063 0.56503343
vn -9.1881784e-2 -0.15631968 0.98342356
vn -0.53388779 -0.12472764 0.83630547
vn 0.10591504 -0.54823954 0.82958749
vn -0.62125964 -0.54692369 0.56116926
vn 0.90152911 -0.34605806 0.25978660
vn 0.48890182 0.24635726 0.83682920
vn 0.44521314 0.21688102 0.86876227
vn 0.12062937 -0.97911192 0.16367163
vn 0.20000324 -0.97758547 6.5767383e-2
vn -0.17491148 -0.64740007 -0.74180801
vn 0.62133279 -0.68241663 0.38503650
vn -0.31155747 -0.63921832 -0.70308740
vn -0.25650034 -0.94938501 0.18131651
vn 0.57033025 -0.68110135 0.45915613
vn 0.53761946 0.51660875 -0.66639381
vn 0.19413626 0.71855672 -0.66782284
vn 0.25650036 0.94938501 0.18131651
vn 0.34180769 0.58151783 -0.73824421
vn 0.53889685 0.51783622 0.66440638
vn 0.74818582 0.40062669 0.52888207
vn 0.19413626 0.71855672 -0.66782284
vn 0.50200218 0.85405689 -0.13631082
vn 0.31055825 0.85478175 -0.41581454
vn 0.11180289 0.95822824 -0.26324655
vn 0.34180769 0.58151783 -0.73824421
vn 0.24394340 0.72065314 -0.64896122
vn -0.65085784 0.12641215 -0.74860139
vn 0.31055825 0.85478175 -0.41581454
vn -0.57277403 0.67492890 0.46518909
vn 0.24394340 0.72065314 -0.64896122
vn -0.92870466 0.10378864 -0.35599940
vn -0.28340732 0.84880957 0.44632118
vn -0.57277403 0.67492890 0.46518909
vn -0.20162713 0.96269698 0.18044676
vn -0.66095881 0.53225334 0.52899890
vn 5.2677720e-2 0.86307335 0.50232406
vn -0.28340732 0.84880957 0.44632118
vn -0.63416764 0.67012628 0.38569699
vn 0.79715925 0.52188365 0.30360267
vn -0.66095881 0.53225334 0.52899890
vn 0.25650036 0.94938501 0.18131651
vn -0.55301345 0.47726472 0.68293082
vn -0.63416764 0.67012628 0.38569699
vn 0.74818582 0.40062669 0.52888207
vn 0.53761946 0.51660875 -0.66639381
vn 0.50200218 0.85405689 -0.13631082
vn 0.60201715 0.67563024 -0.42555743
vn 0.34180769 0.58151783 -0.73824421
vn 0.78493594 0.54502792 -0.29465257
vn 0.51802626 0.55500072 -0.65086327
vn 0.31055825 0.85478175 -0.41581454
vn -0.82976176 0.53921253 -0.14403217
vn 0.11180289 0.95822824 -0.26324655
vn -0.92870466 0.10378864 -0.35599940
vn 0.20238047 -0.13151567 -0.97043587
vn -0.11971172 -0.32739977 -0.93727184
vn -0.65085784 0.12641215 -0.74860139
vn -0.20162713 0.96269698 0.18044676
vn -0.98042759 0.19688003 0.0000000e+0
vn -0.43147713 0.54385074 -0.71975958
vn -0.28340732 0.84880957 0.44632118
vn -0.90152920 0.34605797 0.25978642
vn 7.5727720e-3 0.56651303 0.82401799
vn -0.66095881 0.53225334 0.52899890
vn -0.52704598 0.56999018 0.63034414
vn 5.2677720e-2 0.86307335 0.50232406
vn -0.55301345 0.47726472 0.68293082
vn -0.21938214 0.72133526 0.65692231
vn 0.79715925 0.52188365 0.30360267
vn 0.52019991 0.55438599 0.64965239
vn 0.91278363 7.2080639e-2 0.40203286
vn 0.53889685 0.51783622 0.66440638
vn 0.74818582 0.40062669 0.52888207
vn 0.42278640 0.42389591 0.80097685
vn 0.60201715 0.67563024 -0.42555743
vn 0.43480438 -0.54344188 -0.71806411
vn 0.99125267 0.13197782 0.0000000e+0
vn 0.52946168 -0.76131009 -0.37426899
vn 0.51802626 0.55500072 -0.65086327
vn 0.98042759 -0.19688003 0.0000000e+0
vn -0.22880960 -0.26184786 -0.93759366
vn 0.18316892 0.23025873 -0.95573535
vn 0.20238047 -0.13151567 -0.97043587
vn -0.21501209 0.13972289 -0.96656470
vn -0.11971172 -0.32739977 -0.93727184
vn 0.11410804 0.27736421 -0.95396460
vn -0.98042759 0.19688003 0.0000000e+0
vn -0.88694169 -0.34631018 -0.30562019
vn -0.43147713 0.54385074 -0.71975958
vn -0.99125267 -0.13197780 0.0000000e+0
vn -0.80030796 -0.19865000 -0.56572551
vn -0.53367066 0.75689025 -0.37724367
vn 7.5727720e-3 0.56651303 0.82401799
vn -0.18869544 -0.80320063 0.56503343
vn -0.21938214 0.72133526 0.65692231
vn -0.80030774 -0.19864931 0.56572605
vn -0.80930637 0.13319010 0.57208705
vn 0.10591504 -0.54823954 0.82958749
vn 0.48890182 0.24635726 0.83682920
vn 0.91278363 7.2080639e-2 0.40203286
vn 0.44521314 0.21688102 0.86876227
vn 0.71189455 0.10144798 0.69492047
vn 0.70814185 -0.21777890 0.67164535
vn 0.42278640 0.42389591 0.80097685
vn 0.90152911 -0.34605806 0.25978660
vn 0.52019991 0.55438599 0.64965239
vn 0.99125267 0.13197782 0.0000000e+0
vn 0.44521314 0.21688102 0.86876227
vn 0.42278640 0.42389591 0.80097685
vn 0.98042759 -0.19688003 0.0000000e+0
vn -0.22880960 -0.26184786 -0.93759366
vn 0.81986040 -0.53277733 -0.20970752
vn 0.60201715 0.67563024 -0.42555743
vn 0.52946168 -0.76131009 -0.37426899
vn 0.78493594 0.54502792 -0.29465257
vn -0.21501209 0.13972289 -0.96656470
vn 0.18316892 0.23025873 -0.95573535
vn -0.82976176 0.53921253 -0.14403217
vn -0.57996596 -0.35062837 -0.73532254
vn 0.20238047 -0.13151567 -0.97043587
vn -0.80030796 -0.19865000 -0.56572551
vn -0.53367066 0.75689025 -0.37724367
vn -0.88694179 -0.34631009 0.30562000
vn -0.98042759 0.19688003 0.0000000e+0
vn -0.99125267 -0.13197780 0.0000000e+0
vn -0.90152920 0.34605797 0.25978642
vn -0.80030774 -0.19864931 0.56572605
vn -0.80930637 0.13319010 0.57208705
vn -0.18869544 -0.80320063 0.56503343
vn -0.52704598 0.56999018 0.63034414
vn -0.21938214 0.72133526 0.65692231
vn 0.71189455 0.10144798 0.69492047
vn 0.70814185 -0.21777890 0.67164535
vn -0.62125964 -0.54692369 0.56116926
vn 0.81986040 -0.53277733 -0.20970752
vn -0.43964075 -0.82431228 -0.35668653
vn 0.88588775 -0.21653751 -0.41026137
vn -0.21501209 0.13972289 -0.96656470
vn -0.12450772 -0.98169973 -0.14409534
vn 0.11410804 0.27736421 -0.95396460
vn 7.2883899e-3 -0.98079768 -0.19489176
vn -0.88694169 -0.34631018 -0.30562019
vn -0.57996596 -0.35062837 -0.73532254
vn 0.10381375 -0.83753108 -0.53643675
vn -0.80030796 -0.19865000 -0.56572551
vn -0.70855304 -0.68086201 -0.18541713
vn -0.88694179 -0.34631009 0.30562000
vn -9.1881784e-2 -0.15631968 0.98342356
vn -0.70855307 -0.68086203 0.18541696
vn -0.80030774 -0.19864931 0.56572605
vn 0.10591504 -0.54823954 0.82958749
vn -0.47705018 -0.81160687 0.33722012
vn 0.48890182 0.24635726 0.83682920
vn 0.71189455 0.10144798 0.69492047
vn 0.53712679 -0.83801477 9.6052378e-2
vn -0.53388779 -0.12472764 0.83630547
vn 0.20000324 -0.97758547 6.5767383e-2
vn -0.62125964 -0.54692369 0.56116926
vn 0.90152911 -0.34605806 0.25978660
vn 0.43480438 -0.54344188 -0.71806411
vn 0.24795029 -0.83903539 0.48429358
vn 0.12062937 -0.97911192 0.16367163
vn 0.98042759 -0.19688003 0.0000000e+0
vn 0.67639735 -0.20340405 -0.70789365
vn 0.24795029 -0.83903539 0.48429358
vn -0.43964075 -0.82431228 -0.35668653
vn 0.88588775 -0.21653751 -0.41026137
vn -0.31155747 -0.63921832 -0.70308740
vn 0.67639735 -0.20340405 -0.70789365
vn 0.57033025 -0.68110135 0.45915613
vn 7.2883899e-3 -0.98079768 -0.19489176
vn -0.17491148 -0.64740007 -0.74180801
vn -0.43964075 -0.82431228 -0.35668653
vn -0.31155747 -0.63921832 -0.70308740
vn -0.12450772 -0.98169973 -0.14409534
vn 0.10381375 -0.83753108 -0.53643675
vn -0.17491148 -0.64740007 -0.74180801
vn -0.70855307 -0.68086203 0.18541696
vn -0.25650034 -0.94938501 0.18131651
vn 0.10381375 -0.83753108 -0.53643675
vn -0.70855304 -0.68086201 -0.18541713
vn -0.47705018 -0.81160687 0.33722012
vn 0.62133279 -0.68241663 0.38503650
vn -9.1881784e-2 -0.15631968 0.98342356
vn -0.25650034 -0.94938501 0.18131651
vn 0.53712679 -0.83801477 9.6052378e-2
vn -0.53388779 -0.12472764 0.83630547
vn -0.47705018 -0.81160687 0.33722012
vn 0.62133279 -0.68241663 0.38503650
vn 0.24795029 -0.83903539 0.48429358
vn 0.12062937 -0.97911192 0.16367163
vn 0.53712679 -0.83801477 9.6052378e-2
vn 0.20000324 -0.97758547 6.5767383e-2
vn 0.57033025 -0.68110135 0.45915613
g Sphere_Collision_Collision
usemtl Collision
s 1
f 2/34/6 18/39/91 13/35/61
f 3/44/15 24/46/131 19/49/102
f 4/4/18 25/6/135 20/9/106
f 5/14/21 26/16/139 21/19/109
f 6/24/28 27/26/146 22/29/117
f 7/38/31 33/43/181 29/41/158
f 8/48/36 30/51/163 24/46/128
f 9/8/43 31/11/171 25/6/136
f 9/8/44 40/7/224 35/13/195
f 10/18/48 41/17/233 36/23/202
f 11/28/53 28/31/154 27/26/147
f 12/42/58 39/47/220 38/37/214
f 12/22/57 42/27/235 41/17/229
f 13/35/62 14/45/67 1/40/1
f 14/45/69 19/49/97 15/54/74
f 15/5/75 16/15/79 1/10/2
f 16/15/80 20/9/104 5/14/22
f 17/25/88 21/19/113 6/24/29
f 17/25/90 22/29/119 13/35/66
f 18/39/95 29/41/161 3/44/14
f 19/49/98 30/51/164 4/53/17
f 22/29/116 28/31/152 2/34/7
f 23/36/122 37/33/206 7/38/32
f 26/16/144 35/13/197 10/18/49
f 30/51/167 34/52/191 25/55/137
f 32/21/178 36/23/200 27/26/148
f 33/43/185 39/47/221 8/48/39
f 36/23/203 42/27/239 11/28/55
f 37/33/207 42/27/236 38/37/211
f 39/1/222 40/7/226 34/3/190
s 2
f 1/30/3 17/25/87 13/35/63
f 2/34/10 23/36/125 18/39/96
f 4/53/20 30/51/168 25/55/138
f 6/24/26 22/29/115 17/25/85
f 6/24/30 32/21/179 27/26/149
f 7/38/33 29/41/160 23/36/124
f 8/48/37 39/47/217 34/52/187
f 10/18/46 32/21/175 26/16/140
f 11/28/54 42/27/237 37/33/208
f 12/12/59 41/17/231 40/7/225
f 13/35/65 22/29/118 2/34/9
f 14/45/72 15/54/76 1/50/4
f 14/45/68 18/39/92 3/44/12
f 15/54/77 19/49/100 4/53/19
f 15/5/78 20/9/107 16/15/83
f 16/15/81 21/19/110 17/25/86
f 24/46/129 30/51/166 19/49/101
f 25/6/133 31/11/170 20/9/105
f 25/6/134 34/3/188 9/8/42
f 27/26/150 28/31/155 22/29/120
f 27/26/145 36/23/199 11/28/52
f 28/31/156 37/33/209 23/36/126
f 29/41/162 33/43/184 24/46/130
f 31/11/173 35/13/196 26/16/142
f 35/13/194 41/17/230 10/18/47
f 37/33/210 38/37/215 7/38/35
f 38/37/212 39/47/219 33/43/182
f 38/37/216 42/27/240 12/32/60
f 41/17/232 42/27/238 36/23/201
s 3
f 2/34/8 28/31/153 23/36/123
f 3/44/13 19/49/99 14/45/70
f 3/44/11 29/41/157 24/46/127
f 4/4/16 20/9/103 15/5/73
f 5/14/23 21/19/112 16/15/82
f 7/38/34 38/37/213 33/43/183
f 8/48/38 34/52/189 30/51/165
f 9/8/41 35/13/193 31/11/169
f 10/18/50 36/23/204 32/21/180
f 11/28/51 37/33/205 28/31/151
f 12/2/56 40/7/223 39/1/218
f 13/35/64 18/39/94 14/45/71
f 16/15/84 17/25/89 1/20/5
f 20/9/108 31/11/172 5/14/24
f 21/19/111 32/21/176 6/24/27
f 23/36/121 29/41/159 18/39/93
f 24/46/132 33/43/186 8/48/40
f 34/3/192 40/7/227 9/8/45
f 40/7/228 41/17/234 35/13/198
s 4
f 5/14/25 31/11/174 26/16/143
f 26/16/141 32/21/177 21/19/114
