# Blender v2.62 (sub 0) OBJ File: 'cube.blend'
# www.blender.org
v 0.500000 -0.500000 -0.500000
v 0.500000 -0.500000 0.500000
v -0.500000 -0.500000 0.500000
v -0.500000 -0.500000 -0.500000
v 0.500000 0.500000 -0.500000
v 0.500000 0.500000 0.500000
v -0.500000 0.500000 0.500000
v -0.500000 0.500000 -0.500000
vt 0.375624 0.500625
vt 0.624375 0.500624
vt 0.624375 0.749375
vt 0.375625 0.749375
vt 0.375625 0.251875
vt 0.375624 0.003126
vt 0.624373 0.003126
vt 0.624374 0.251874
vt 0.873126 0.749375
vt 0.873126 0.998126
vt 0.624375 0.998126
vt 0.375625 0.998126
vt 0.126874 0.998126
vt 0.126874 0.749375
vn 0.000000 -1.000000 0.000000
vn 0.000000 1.000000 0.000000
vn 1.000000 0.000000 0.000000
vn -0.000000 -0.000000 1.000000
vn -1.000000 -0.000000 -0.000000
vn 0.000000 0.000000 -1.000000
s off
f 1/1/1 2/2/1 3/3/1
f 1/1/1 3/3/1 4/4/1
f 5/5/2 8/6/2 7/7/2
f 5/5/2 7/7/2 6/8/2
f 1/1/3 5/5/3 6/8/3
f 1/1/3 6/8/3 2/2/3
f 2/9/4 6/10/4 7/11/4
f 2/9/4 7/11/4 3/3/4
f 3/3/5 7/11/5 8/12/5
f 3/3/5 8/12/5 4/4/5
f 5/13/6 1/14/6 4/4/6
f 5/13/6 4/4/6 8/12/6
