# This file uses centimeters as units for non-parametric coordinates.

v -0.000004 -10.075523 17.937708
v 2.806071 -10.075523 17.716864
v 5.543052 -10.075523 17.059774
v 8.143544 -10.075523 15.982615
v 10.543516 -10.075523 14.511912
v 12.683870 -10.075523 12.683878
v 14.511906 -10.075523 10.543523
v 15.982611 -10.075523 8.143552
v 17.059772 -10.075523 5.543060
v 17.716862 -10.075523 2.806079
v 17.937706 -10.075523 0.000004
v 17.716862 -10.075523 -2.806071
v 17.059771 -10.075523 -5.543052
v 15.982613 -10.075523 -8.143543
v 14.511910 -10.075523 -10.543514
v 12.683875 -10.075523 -12.683869
v 10.543520 -10.075523 -14.511904
v 8.143550 -10.075523 -15.982609
v 5.543058 -10.075523 -17.059769
v 2.806078 -10.075523 -17.716858
v 0.000003 -10.075523 -17.937702
v -2.806072 -10.075523 -17.716860
v -5.543052 -10.075523 -17.059769
v -8.143543 -10.075523 -15.982610
v -10.543513 -10.075523 -14.511907
v -12.683867 -10.075523 -12.683872
v -14.511903 -10.075523 -10.543518
v -15.982607 -10.075523 -8.143548
v -17.059767 -10.075523 -5.543056
v -17.716856 -10.075523 -2.806076
v -17.937700 -10.075523 -0.000002
v -17.716858 -10.075523 2.806073
v -17.059767 -10.075523 5.543052
v -15.982608 -10.075523 8.143543
v -14.511904 -10.075523 10.543513
v -12.683868 -10.075523 12.683867
v -10.543514 -10.075523 14.511901
v -8.143544 -10.075523 15.982604
v -5.543053 -10.075523 17.059761
v -2.806074 -10.075523 17.716852
v -0.000004 10.075523 17.937708
v 2.806071 10.075523 17.716864
v 5.543052 10.075523 17.059774
v 8.143544 10.075523 15.982615
v 10.543516 10.075523 14.511912
v 12.683870 10.075523 12.683878
v 14.511906 10.075523 10.543523
v 15.982611 10.075523 8.143552
v 17.059772 10.075523 5.543060
v 17.716862 10.075523 2.806079
v 17.937706 10.075523 0.000004
v 17.716862 10.075523 -2.806071
v 17.059771 10.075523 -5.543052
v 15.982613 10.075523 -8.143543
v 14.511910 10.075523 -10.543514
v 12.683875 10.075523 -12.683869
v 10.543520 10.075523 -14.511904
v 8.143550 10.075523 -15.982609
v 5.543058 10.075523 -17.059769
v 2.806078 10.075523 -17.716858
v 0.000003 10.075523 -17.937702
v -2.806072 10.075523 -17.716860
v -5.543052 10.075523 -17.059769
v -8.143543 10.075523 -15.982610
v -10.543513 10.075523 -14.511907
v -12.683867 10.075523 -12.683872
v -14.511903 10.075523 -10.543518
v -15.982607 10.075523 -8.143548
v -17.059767 10.075523 -5.543056
v -17.716856 10.075523 -2.806076
v -17.937700 10.075523 -0.000002
v -17.716858 10.075523 2.806073
v -17.059767 10.075523 5.543052
v -15.982608 10.075523 8.143543
v -14.511904 10.075523 10.543513
v -12.683868 10.075523 12.683867
v -10.543514 10.075523 14.511901
v -8.143544 10.075523 15.982604
v -5.543053 10.075523 17.059761
v -2.806074 10.075523 17.716852
v -0.000004 -10.075523 17.937708
v -0.000004 10.075523 17.937708
vt 0.999996 0.004037
vt 0.974997 0.004037
vt 0.999996 0.996903
vt 0.974997 0.996903
vt 0.949997 0.004037
vt 0.949997 0.996903
vt 0.924997 0.004037
vt 0.924997 0.996903
vt 0.899998 0.004037
vt 0.899998 0.996903
vt 0.874998 0.004037
vt 0.874998 0.996903
vt 0.849998 0.004037
vt 0.849998 0.996903
vt 0.824998 0.004037
vt 0.824998 0.996903
vt 0.799999 0.004037
vt 0.799999 0.996903
vt 0.774999 0.004037
vt 0.774999 0.996903
vt 0.749999 0.004037
vt 0.749999 0.996903
vt 0.724999 0.004037
vt 0.724999 0.996903
vt 0.700000 0.004037
vt 0.700000 0.996903
vt 0.675000 0.004037
vt 0.675000 0.996903
vt 0.650000 0.004037
vt 0.650000 0.996903
vt 0.625001 0.004037
vt 0.625001 0.996903
vt 0.600001 0.004037
vt 0.600001 0.996903
vt 0.575001 0.004037
vt 0.575001 0.996903
vt 0.550001 0.004037
vt 0.550001 0.996903
vt 0.525002 0.004037
vt 0.525002 0.996903
vt 0.500002 0.004037
vt 0.500002 0.996903
vt 0.475002 0.004037
vt 0.475002 0.996903
vt 0.450002 0.004037
vt 0.450002 0.996903
vt 0.425003 0.004037
vt 0.425003 0.996903
vt 0.400003 0.004037
vt 0.400003 0.996903
vt 0.375003 0.004037
vt 0.375003 0.996903
vt 0.350003 0.004037
vt 0.350003 0.996903
vt 0.325003 0.004037
vt 0.325003 0.996903
vt 0.300003 0.004037
vt 0.300003 0.996903
vt 0.275003 0.004037
vt 0.275003 0.996903
vt 0.250004 0.004037
vt 0.250004 0.996903
vt 0.225004 0.004037
vt 0.225004 0.996903
vt 0.200004 0.004037
vt 0.200004 0.996903
vt 0.175004 0.004037
vt 0.175004 0.996903
vt 0.150004 0.004037
vt 0.150004 0.996903
vt 0.125004 0.004037
vt 0.125004 0.996903
vt 0.100005 0.004037
vt 0.100005 0.996903
vt 0.075005 0.004037
vt 0.075005 0.996903
vt 0.050005 0.004037
vt 0.050005 0.996903
vt 0.025005 0.004037
vt 0.025005 0.996903
vt 0.000005 0.004037
vt 0.000005 0.996903
vn -0.078460 0.000000 -0.996917
vn -0.078460 0.000000 -0.996917
vn -0.078460 0.000000 -0.996917
vn -0.078460 0.000000 -0.996917
vn -0.078460 0.000000 -0.996917
vn -0.078460 0.000000 -0.996917
vn -0.233445 0.000000 -0.972370
vn -0.233445 0.000000 -0.972370
vn -0.233445 0.000000 -0.972370
vn -0.233445 0.000000 -0.972370
vn -0.233445 0.000000 -0.972370
vn -0.233445 0.000000 -0.972370
vn -0.382683 0.000000 -0.923880
vn -0.382683 0.000000 -0.923880
vn -0.382683 0.000000 -0.923880
vn -0.382683 0.000000 -0.923880
vn -0.382683 0.000000 -0.923880
vn -0.382683 0.000000 -0.923880
vn -0.522498 0.000000 -0.852640
vn -0.522498 0.000000 -0.852640
vn -0.522498 0.000000 -0.852640
vn -0.522498 0.000000 -0.852641
vn -0.522498 0.000000 -0.852641
vn -0.522498 0.000000 -0.852641
vn -0.649448 0.000000 -0.760406
vn -0.649448 0.000000 -0.760406
vn -0.649448 0.000000 -0.760406
vn -0.649448 0.000000 -0.760406
vn -0.649448 0.000000 -0.760406
vn -0.649448 0.000000 -0.760406
vn -0.760406 0.000000 -0.649448
vn -0.760406 0.000000 -0.649448
vn -0.760406 0.000000 -0.649448
vn -0.760406 0.000000 -0.649448
vn -0.760406 0.000000 -0.649448
vn -0.760406 0.000000 -0.649448
vn -0.852640 0.000000 -0.522499
vn -0.852640 0.000000 -0.522499
vn -0.852640 0.000000 -0.522499
vn -0.852640 0.000000 -0.522499
vn -0.852640 0.000000 -0.522499
vn -0.852640 0.000000 -0.522499
vn -0.923879 0.000000 -0.382684
vn -0.923879 0.000000 -0.382684
vn -0.923879 0.000000 -0.382684
vn -0.923879 0.000000 -0.382684
vn -0.923879 0.000000 -0.382684
vn -0.923879 0.000000 -0.382684
vn -0.972370 0.000000 -0.233445
vn -0.972370 0.000000 -0.233445
vn -0.972370 0.000000 -0.233445
vn -0.972370 0.000000 -0.233445
vn -0.972370 0.000000 -0.233445
vn -0.972370 0.000000 -0.233445
vn -0.996917 0.000000 -0.078460
vn -0.996917 0.000000 -0.078460
vn -0.996917 0.000000 -0.078460
vn -0.996917 0.000000 -0.078460
vn -0.996917 0.000000 -0.078460
vn -0.996917 0.000000 -0.078460
vn -0.996917 0.000000 0.078460
vn -0.996917 0.000000 0.078460
vn -0.996917 0.000000 0.078460
vn -0.996917 0.000000 0.078460
vn -0.996917 0.000000 0.078460
vn -0.996917 0.000000 0.078460
vn -0.972370 0.000000 0.233445
vn -0.972370 0.000000 0.233445
vn -0.972370 0.000000 0.233445
vn -0.972370 0.000000 0.233445
vn -0.972370 0.000000 0.233445
vn -0.972370 0.000000 0.233445
vn -0.923880 0.000000 0.382683
vn -0.923880 0.000000 0.382683
vn -0.923880 0.000000 0.382683
vn -0.923880 0.000000 0.382683
vn -0.923880 0.000000 0.382683
vn -0.923880 0.000000 0.382683
vn -0.852641 0.000000 0.522498
vn -0.852641 0.000000 0.522498
vn -0.852641 0.000000 0.522498
vn -0.852640 0.000000 0.522498
vn -0.852640 0.000000 0.522498
vn -0.852640 0.000000 0.522498
vn -0.760406 0.000000 0.649448
vn -0.760406 0.000000 0.649448
vn -0.760406 0.000000 0.649448
vn -0.760406 0.000000 0.649448
vn -0.760406 0.000000 0.649448
vn -0.760406 0.000000 0.649448
vn -0.649448 0.000000 0.760406
vn -0.649448 0.000000 0.760406
vn -0.649448 0.000000 0.760406
vn -0.649448 0.000000 0.760406
vn -0.649448 0.000000 0.760406
vn -0.649448 0.000000 0.760406
vn -0.522499 0.000000 0.852640
vn -0.522499 0.000000 0.852640
vn -0.522499 0.000000 0.852640
vn -0.522499 0.000000 0.852640
vn -0.522499 0.000000 0.852640
vn -0.522499 0.000000 0.852640
vn -0.382684 0.000000 0.923879
vn -0.382684 0.000000 0.923879
vn -0.382684 0.000000 0.923879
vn -0.382683 0.000000 0.923880
vn -0.382683 0.000000 0.923880
vn -0.382683 0.000000 0.923880
vn -0.233445 0.000000 0.972370
vn -0.233445 0.000000 0.972370
vn -0.233445 0.000000 0.972370
vn -0.233446 0.000000 0.972370
vn -0.233446 0.000000 0.972370
vn -0.233446 0.000000 0.972370
vn -0.078459 0.000000 0.996917
vn -0.078459 0.000000 0.996917
vn -0.078459 0.000000 0.996917
vn -0.078460 0.000000 0.996917
vn -0.078460 0.000000 0.996917
vn -0.078460 0.000000 0.996917
vn 0.078458 0.000000 0.996917
vn 0.078458 0.000000 0.996917
vn 0.078458 0.000000 0.996917
vn 0.078460 0.000000 0.996917
vn 0.078460 0.000000 0.996917
vn 0.078460 0.000000 0.996917
vn 0.233447 0.000000 0.972370
vn 0.233447 0.000000 0.972370
vn 0.233447 0.000000 0.972370
vn 0.233445 0.000000 0.972370
vn 0.233445 0.000000 0.972370
vn 0.233445 0.000000 0.972370
vn 0.382683 0.000000 0.923880
vn 0.382683 0.000000 0.923880
vn 0.382683 0.000000 0.923880
vn 0.382683 0.000000 0.923880
vn 0.382683 0.000000 0.923880
vn 0.382683 0.000000 0.923880
vn 0.522499 0.000000 0.852640
vn 0.522499 0.000000 0.852640
vn 0.522499 0.000000 0.852640
vn 0.522498 0.000000 0.852641
vn 0.522498 0.000000 0.852641
vn 0.522498 0.000000 0.852641
vn 0.649448 0.000000 0.760406
vn 0.649448 0.000000 0.760406
vn 0.649448 0.000000 0.760406
vn 0.649447 0.000000 0.760407
vn 0.649447 0.000000 0.760407
vn 0.649447 0.000000 0.760407
vn 0.760406 0.000000 0.649448
vn 0.760406 0.000000 0.649448
vn 0.760406 0.000000 0.649448
vn 0.760406 0.000000 0.649448
vn 0.760406 0.000000 0.649448
vn 0.760406 0.000000 0.649448
vn 0.852640 0.000000 0.522499
vn 0.852640 0.000000 0.522499
vn 0.852640 0.000000 0.522499
vn 0.852640 0.000000 0.522499
vn 0.852640 0.000000 0.522499
vn 0.852640 0.000000 0.522499
vn 0.923880 0.000000 0.382684
vn 0.923879 0.000000 0.382684
vn 0.923880 0.000000 0.382684
vn 0.923879 0.000000 0.382684
vn 0.923879 0.000000 0.382684
vn 0.923879 0.000000 0.382684
vn 0.972370 0.000000 0.233445
vn 0.972370 0.000000 0.233445
vn 0.972370 0.000000 0.233445
vn 0.972370 0.000000 0.233445
vn 0.972370 0.000000 0.233445
vn 0.972370 0.000000 0.233445
vn 0.996917 0.000000 0.078460
vn 0.996917 0.000000 0.078460
vn 0.996917 0.000000 0.078460
vn 0.996917 0.000000 0.078460
vn 0.996917 0.000000 0.078460
vn 0.996917 0.000000 0.078460
vn 0.996917 0.000000 -0.078459
vn 0.996917 0.000000 -0.078459
vn 0.996917 0.000000 -0.078459
vn 0.996917 0.000000 -0.078459
vn 0.996917 0.000000 -0.078459
vn 0.996917 0.000000 -0.078459
vn 0.972370 0.000000 -0.233446
vn 0.972370 0.000000 -0.233446
vn 0.972370 0.000000 -0.233446
vn 0.972370 0.000000 -0.233446
vn 0.972370 0.000000 -0.233446
vn 0.972370 0.000000 -0.233446
vn 0.923880 0.000000 -0.382683
vn 0.923880 0.000000 -0.382683
vn 0.923880 0.000000 -0.382684
vn 0.923880 0.000000 -0.382684
vn 0.923880 0.000000 -0.382683
vn 0.923880 0.000000 -0.382683
vn 0.852640 0.000000 -0.522498
vn 0.852640 0.000000 -0.522498
vn 0.852640 0.000000 -0.522498
vn 0.852640 0.000000 -0.522499
vn 0.852640 0.000000 -0.522499
vn 0.852640 0.000000 -0.522499
vn 0.760406 0.000000 -0.649448
vn 0.760406 0.000000 -0.649448
vn 0.760406 0.000000 -0.649448
vn 0.760406 0.000000 -0.649448
vn 0.760406 0.000000 -0.649448
vn 0.760406 0.000000 -0.649448
vn 0.649448 0.000000 -0.760406
vn 0.649448 0.000000 -0.760406
vn 0.649448 0.000000 -0.760406
vn 0.649448 0.000000 -0.760406
vn 0.649448 0.000000 -0.760406
vn 0.649448 0.000000 -0.760406
vn 0.522499 0.000000 -0.852640
vn 0.522499 0.000000 -0.852640
vn 0.522499 0.000000 -0.852640
vn 0.522498 0.000000 -0.852641
vn 0.522498 0.000000 -0.852641
vn 0.522498 0.000000 -0.852641
vn 0.382683 0.000000 -0.923880
vn 0.382683 0.000000 -0.923880
vn 0.382683 0.000000 -0.923880
vn 0.382682 0.000000 -0.923880
vn 0.382682 0.000000 -0.923880
vn 0.382682 0.000000 -0.923880
vn 0.233445 0.000000 -0.972370
vn 0.233445 0.000000 -0.972370
vn 0.233445 0.000000 -0.972370
vn 0.233447 0.000000 -0.972370
vn 0.233447 0.000000 -0.972370
vn 0.233447 0.000000 -0.972370
vn 0.078463 0.000000 -0.996917
vn 0.078463 0.000000 -0.996917
vn 0.078463 0.000000 -0.996917
vn 0.078464 0.000000 -0.996917
vn 0.078464 0.000000 -0.996917
vn 0.078464 0.000000 -0.996917
f 81/1/1 82/3/2 2/2/3
f 82/3/4 42/4/5 2/2/6
f 2/2/7 42/4/8 3/5/9
f 42/4/10 43/6/11 3/5/12
f 3/5/13 43/6/14 4/7/15
f 43/6/16 44/8/17 4/7/18
f 4/7/19 44/8/20 5/9/21
f 44/8/22 45/10/23 5/9/24
f 5/9/25 45/10/26 6/11/27
f 45/10/28 46/12/29 6/11/30
f 6/11/31 46/12/32 7/13/33
f 46/12/34 47/14/35 7/13/36
f 7/13/37 47/14/38 8/15/39
f 47/14/40 48/16/41 8/15/42
f 8/15/43 48/16/44 9/17/45
f 48/16/46 49/18/47 9/17/48
f 9/17/49 49/18/50 10/19/51
f 49/18/52 50/20/53 10/19/54
f 10/19/55 50/20/56 11/21/57
f 50/20/58 51/22/59 11/21/60
f 11/21/61 51/22/62 12/23/63
f 51/22/64 52/24/65 12/23/66
f 12/23/67 52/24/68 13/25/69
f 52/24/70 53/26/71 13/25/72
f 13/25/73 53/26/74 14/27/75
f 53/26/76 54/28/77 14/27/78
f 14/27/79 54/28/80 15/29/81
f 54/28/82 55/30/83 15/29/84
f 15/29/85 55/30/86 16/31/87
f 55/30/88 56/32/89 16/31/90
f 16/31/91 56/32/92 17/33/93
f 56/32/94 57/34/95 17/33/96
f 17/33/97 57/34/98 18/35/99
f 57/34/100 58/36/101 18/35/102
f 18/35/103 58/36/104 19/37/105
f 58/36/106 59/38/107 19/37/108
f 19/37/109 59/38/110 20/39/111
f 59/38/112 60/40/113 20/39/114
f 20/39/115 60/40/116 21/41/117
f 60/40/118 61/42/119 21/41/120
f 21/41/121 61/42/122 22/43/123
f 61/42/124 62/44/125 22/43/126
f 22/43/127 62/44/128 23/45/129
f 62/44/130 63/46/131 23/45/132
f 23/45/133 63/46/134 24/47/135
f 63/46/136 64/48/137 24/47/138
f 24/47/139 64/48/140 25/49/141
f 64/48/142 65/50/143 25/49/144
f 25/49/145 65/50/146 26/51/147
f 65/50/148 66/52/149 26/51/150
f 26/51/151 66/52/152 27/53/153
f 66/52/154 67/54/155 27/53/156
f 27/53/157 67/54/158 28/55/159
f 67/54/160 68/56/161 28/55/162
f 28/55/163 68/56/164 29/57/165
f 68/56/166 69/58/167 29/57/168
f 29/57/169 69/58/170 30/59/171
f 69/58/172 70/60/173 30/59/174
f 30/59/175 70/60/176 31/61/177
f 70/60/178 71/62/179 31/61/180
f 31/61/181 71/62/182 32/63/183
f 71/62/184 72/64/185 32/63/186
f 32/63/187 72/64/188 33/65/189
f 72/64/190 73/66/191 33/65/192
f 33/65/193 73/66/194 34/67/195
f 73/66/196 74/68/197 34/67/198
f 34/67/199 74/68/200 35/69/201
f 74/68/202 75/70/203 35/69/204
f 35/69/205 75/70/206 36/71/207
f 75/70/208 76/72/209 36/71/210
f 36/71/211 76/72/212 37/73/213
f 76/72/214 77/74/215 37/73/216
f 37/73/217 77/74/218 38/75/219
f 77/74/220 78/76/221 38/75/222
f 38/75/223 78/76/224 39/77/225
f 78/76/226 79/78/227 39/77/228
f 39/77/229 79/78/230 40/79/231
f 79/78/232 80/80/233 40/79/234
f 40/79/235 80/80/236 1/81/237
f 80/80/238 41/82/239 1/81/240
